<svg width="1440" height="1024" viewBox="0 0 1440 1024" fill="none" xmlns="http://www.w3.org/2000/svg">
<g clip-path="url(#clip0_299_2)">
<rect width="1440" height="1024" fill="white"/>
<line x1="395" y1="80" x2="464" y2="80" stroke="#537FE7" stroke-width="4" stroke-linecap="round"/>
<path d="M404.874 61.526V63.038H399.294V74H397.548V61.526H404.874ZM407.817 66.044C407.817 66.44 407.805 66.866 407.781 67.322C407.769 67.766 407.739 68.216 407.691 68.672C407.643 69.116 407.577 69.56 407.493 70.004C407.409 70.436 407.301 70.844 407.169 71.228C407.037 71.612 406.869 71.972 406.665 72.308C406.473 72.644 406.233 72.944 405.945 73.208C405.657 73.46 405.321 73.676 404.937 73.856C404.553 74.024 404.103 74.132 403.587 74.18L403.353 72.776C403.941 72.656 404.403 72.434 404.739 72.11C405.087 71.786 405.363 71.39 405.567 70.922C405.747 70.514 405.879 70.052 405.963 69.536C406.047 69.02 406.107 68.486 406.143 67.934C406.179 67.37 406.197 66.806 406.197 66.242C406.209 65.678 406.215 65.144 406.215 64.64H412.443V74H410.769V66.044H407.817ZM418.485 72.794C418.881 72.794 419.229 72.788 419.529 72.776C419.841 72.752 420.099 72.716 420.303 72.668V69.878C420.183 69.818 419.985 69.77 419.709 69.734C419.445 69.686 419.121 69.662 418.737 69.662C418.485 69.662 418.215 69.68 417.927 69.716C417.651 69.752 417.393 69.83 417.153 69.95C416.925 70.058 416.733 70.214 416.577 70.418C416.421 70.61 416.343 70.868 416.343 71.192C416.343 71.792 416.535 72.212 416.919 72.452C417.303 72.68 417.825 72.794 418.485 72.794ZM418.341 64.406C419.013 64.406 419.577 64.496 420.033 64.676C420.501 64.844 420.873 65.09 421.149 65.414C421.437 65.726 421.641 66.104 421.761 66.548C421.881 66.98 421.941 67.46 421.941 67.988V73.838C421.797 73.862 421.593 73.898 421.329 73.946C421.077 73.982 420.789 74.018 420.465 74.054C420.141 74.09 419.787 74.12 419.403 74.144C419.031 74.18 418.659 74.198 418.287 74.198C417.759 74.198 417.273 74.144 416.829 74.036C416.385 73.928 416.001 73.76 415.677 73.532C415.353 73.292 415.101 72.98 414.921 72.596C414.741 72.212 414.651 71.75 414.651 71.21C414.651 70.694 414.753 70.25 414.957 69.878C415.173 69.506 415.461 69.206 415.821 68.978C416.181 68.75 416.601 68.582 417.081 68.474C417.561 68.366 418.065 68.312 418.593 68.312C418.761 68.312 418.935 68.324 419.115 68.348C419.295 68.36 419.463 68.384 419.619 68.42C419.787 68.444 419.931 68.468 420.051 68.492C420.171 68.516 420.255 68.534 420.303 68.546V68.078C420.303 67.802 420.273 67.532 420.213 67.268C420.153 66.992 420.045 66.752 419.889 66.548C419.733 66.332 419.517 66.164 419.241 66.044C418.977 65.912 418.629 65.846 418.197 65.846C417.645 65.846 417.159 65.888 416.739 65.972C416.331 66.044 416.025 66.122 415.821 66.206L415.623 64.82C415.839 64.724 416.199 64.634 416.703 64.55C417.207 64.454 417.753 64.406 418.341 64.406ZM426.359 72.74C426.431 72.752 426.533 72.764 426.665 72.776C426.797 72.788 426.947 72.8 427.115 72.812C427.283 72.812 427.457 72.818 427.637 72.83C427.829 72.83 428.009 72.83 428.177 72.83C428.525 72.83 428.855 72.806 429.167 72.758C429.491 72.71 429.767 72.626 429.995 72.506C430.235 72.386 430.421 72.23 430.553 72.038C430.697 71.834 430.769 71.576 430.769 71.264C430.769 70.964 430.703 70.718 430.571 70.526C430.451 70.322 430.283 70.16 430.067 70.04C429.851 69.92 429.593 69.836 429.293 69.788C429.005 69.74 428.693 69.716 428.357 69.716H426.359V72.74ZM428.141 68.474C428.465 68.474 428.759 68.456 429.023 68.42C429.299 68.372 429.533 68.294 429.725 68.186C429.929 68.078 430.085 67.934 430.193 67.754C430.313 67.574 430.373 67.346 430.373 67.07C430.373 66.782 430.301 66.554 430.157 66.386C430.013 66.218 429.821 66.092 429.581 66.008C429.353 65.912 429.089 65.852 428.789 65.828C428.501 65.792 428.207 65.774 427.907 65.774C427.631 65.774 427.349 65.78 427.061 65.792C426.785 65.804 426.551 65.816 426.359 65.828V68.474H428.141ZM428.105 74.162C427.397 74.162 426.743 74.126 426.143 74.054C425.543 73.994 425.069 73.922 424.721 73.838V64.73C425.069 64.646 425.543 64.574 426.143 64.514C426.743 64.442 427.397 64.406 428.105 64.406C428.597 64.406 429.077 64.448 429.545 64.532C430.013 64.616 430.427 64.76 430.787 64.964C431.147 65.156 431.435 65.426 431.651 65.774C431.879 66.11 431.993 66.53 431.993 67.034C431.993 67.49 431.879 67.88 431.651 68.204C431.423 68.528 431.117 68.78 430.733 68.96C431.249 69.14 431.657 69.41 431.957 69.77C432.269 70.118 432.425 70.61 432.425 71.246C432.425 71.81 432.311 72.278 432.083 72.65C431.867 73.022 431.561 73.322 431.165 73.55C430.781 73.778 430.325 73.934 429.797 74.018C429.269 74.114 428.705 74.162 428.105 74.162ZM442.251 74H440.577V69.86H436.257V74H434.583V64.64H436.257V68.456H440.577V64.64H442.251V74ZM448.297 72.794C448.693 72.794 449.041 72.788 449.341 72.776C449.653 72.752 449.911 72.716 450.115 72.668V69.878C449.995 69.818 449.797 69.77 449.521 69.734C449.257 69.686 448.933 69.662 448.549 69.662C448.297 69.662 448.027 69.68 447.739 69.716C447.463 69.752 447.205 69.83 446.965 69.95C446.737 70.058 446.545 70.214 446.389 70.418C446.233 70.61 446.155 70.868 446.155 71.192C446.155 71.792 446.347 72.212 446.731 72.452C447.115 72.68 447.637 72.794 448.297 72.794ZM448.153 64.406C448.825 64.406 449.389 64.496 449.845 64.676C450.313 64.844 450.685 65.09 450.961 65.414C451.249 65.726 451.453 66.104 451.573 66.548C451.693 66.98 451.753 67.46 451.753 67.988V73.838C451.609 73.862 451.405 73.898 451.141 73.946C450.889 73.982 450.601 74.018 450.277 74.054C449.953 74.09 449.599 74.12 449.215 74.144C448.843 74.18 448.471 74.198 448.099 74.198C447.571 74.198 447.085 74.144 446.641 74.036C446.197 73.928 445.813 73.76 445.489 73.532C445.165 73.292 444.913 72.98 444.733 72.596C444.553 72.212 444.463 71.75 444.463 71.21C444.463 70.694 444.565 70.25 444.769 69.878C444.985 69.506 445.273 69.206 445.633 68.978C445.993 68.75 446.413 68.582 446.893 68.474C447.373 68.366 447.877 68.312 448.405 68.312C448.573 68.312 448.747 68.324 448.927 68.348C449.107 68.36 449.275 68.384 449.431 68.42C449.599 68.444 449.743 68.468 449.863 68.492C449.983 68.516 450.067 68.534 450.115 68.546V68.078C450.115 67.802 450.085 67.532 450.025 67.268C449.965 66.992 449.857 66.752 449.701 66.548C449.545 66.332 449.329 66.164 449.053 66.044C448.789 65.912 448.441 65.846 448.009 65.846C447.457 65.846 446.971 65.888 446.551 65.972C446.143 66.044 445.837 66.122 445.633 66.206L445.435 64.82C445.651 64.724 446.011 64.634 446.515 64.55C447.019 64.454 447.565 64.406 448.153 64.406ZM458.404 70.364C458.224 70.364 458.05 70.364 457.882 70.364C457.714 70.352 457.552 70.34 457.396 70.328C457.012 70.904 456.64 71.522 456.28 72.182C455.932 72.83 455.62 73.436 455.344 74H453.652C453.796 73.652 453.964 73.298 454.156 72.938C454.348 72.566 454.54 72.206 454.732 71.858C454.936 71.51 455.14 71.18 455.344 70.868C455.548 70.556 455.74 70.274 455.92 70.022C455.584 69.902 455.308 69.758 455.092 69.59C454.876 69.41 454.702 69.212 454.57 68.996C454.438 68.78 454.342 68.552 454.282 68.312C454.234 68.06 454.21 67.808 454.21 67.556C454.21 67.028 454.306 66.566 454.498 66.17C454.702 65.774 454.978 65.45 455.326 65.198C455.674 64.934 456.082 64.736 456.55 64.604C457.03 64.472 457.552 64.406 458.116 64.406C458.908 64.406 459.58 64.442 460.132 64.514C460.684 64.586 461.146 64.67 461.518 64.766V74H459.862V70.364H458.404ZM459.862 65.882C459.73 65.858 459.508 65.834 459.196 65.81C458.896 65.786 458.548 65.774 458.152 65.774C457.468 65.774 456.916 65.918 456.496 66.206C456.076 66.482 455.866 66.926 455.866 67.538C455.866 68.138 456.082 68.552 456.514 68.78C456.946 69.008 457.504 69.122 458.188 69.122H459.862V65.882Z" fill="black"/>
<path d="M509.912 74.27C509.036 74.27 508.238 74.126 507.518 73.838C506.798 73.55 506.18 73.13 505.664 72.578C505.148 72.026 504.746 71.348 504.458 70.544C504.182 69.728 504.044 68.798 504.044 67.754C504.044 66.71 504.2 65.786 504.512 64.982C504.836 64.166 505.268 63.482 505.808 62.93C506.348 62.378 506.978 61.958 507.698 61.67C508.418 61.382 509.186 61.238 510.002 61.238C510.518 61.238 510.98 61.274 511.388 61.346C511.808 61.418 512.168 61.502 512.468 61.598C512.78 61.694 513.032 61.79 513.224 61.886C513.416 61.982 513.548 62.054 513.62 62.102L513.116 63.542C513.008 63.47 512.852 63.392 512.648 63.308C512.444 63.224 512.21 63.14 511.946 63.056C511.694 62.972 511.412 62.906 511.1 62.858C510.8 62.798 510.494 62.768 510.182 62.768C509.522 62.768 508.928 62.882 508.4 63.11C507.872 63.338 507.422 63.668 507.05 64.1C506.678 64.532 506.39 65.06 506.186 65.684C505.994 66.296 505.898 66.986 505.898 67.754C505.898 68.498 505.982 69.176 506.15 69.788C506.33 70.4 506.594 70.928 506.942 71.372C507.29 71.804 507.722 72.14 508.238 72.38C508.766 72.62 509.378 72.74 510.074 72.74C510.878 72.74 511.544 72.656 512.072 72.488C512.6 72.32 512.996 72.17 513.26 72.038L513.71 73.478C513.626 73.538 513.476 73.616 513.26 73.712C513.044 73.796 512.774 73.88 512.45 73.964C512.126 74.048 511.748 74.12 511.316 74.18C510.884 74.24 510.416 74.27 509.912 74.27ZM523.126 74H521.452V66.044H517.276V74H515.602V64.64H523.126V74ZM525.486 69.338C525.486 68.51 525.606 67.79 525.846 67.178C526.086 66.554 526.404 66.038 526.8 65.63C527.196 65.222 527.652 64.916 528.168 64.712C528.684 64.508 529.212 64.406 529.752 64.406C531.012 64.406 531.978 64.802 532.65 65.594C533.322 66.374 533.658 67.568 533.658 69.176C533.658 69.248 533.658 69.344 533.658 69.464C533.658 69.572 533.652 69.674 533.64 69.77H527.232C527.304 70.742 527.586 71.48 528.078 71.984C528.57 72.488 529.338 72.74 530.382 72.74C530.97 72.74 531.462 72.692 531.858 72.596C532.266 72.488 532.572 72.386 532.776 72.29L533.01 73.694C532.806 73.802 532.446 73.916 531.93 74.036C531.426 74.156 530.85 74.216 530.202 74.216C529.386 74.216 528.678 74.096 528.078 73.856C527.49 73.604 527.004 73.262 526.62 72.83C526.236 72.398 525.948 71.888 525.756 71.3C525.576 70.7 525.486 70.046 525.486 69.338ZM531.912 68.42C531.924 67.664 531.732 67.046 531.336 66.566C530.952 66.074 530.418 65.828 529.734 65.828C529.35 65.828 529.008 65.906 528.708 66.062C528.42 66.206 528.174 66.398 527.97 66.638C527.766 66.878 527.604 67.154 527.484 67.466C527.376 67.778 527.304 68.096 527.268 68.42H531.912ZM543.533 72.614H544.793V76.61H543.209V74H536.063V64.64H537.737V72.614H541.859V64.64H543.533V72.614ZM554.476 64.64V74H552.856V66.872C552.496 67.328 552.1 67.862 551.668 68.474C551.236 69.086 550.804 69.722 550.372 70.382C549.94 71.03 549.526 71.672 549.13 72.308C548.734 72.944 548.392 73.508 548.104 74H546.61V64.64H548.23V71.372C548.542 70.856 548.896 70.292 549.292 69.68C549.688 69.056 550.096 68.444 550.516 67.844C550.948 67.232 551.374 66.65 551.794 66.098C552.226 65.534 552.628 65.048 553 64.64H554.476ZM560.518 72.794C560.914 72.794 561.262 72.788 561.562 72.776C561.874 72.752 562.132 72.716 562.336 72.668V69.878C562.216 69.818 562.018 69.77 561.742 69.734C561.478 69.686 561.154 69.662 560.77 69.662C560.518 69.662 560.248 69.68 559.96 69.716C559.684 69.752 559.426 69.83 559.186 69.95C558.958 70.058 558.766 70.214 558.61 70.418C558.454 70.61 558.376 70.868 558.376 71.192C558.376 71.792 558.568 72.212 558.952 72.452C559.336 72.68 559.858 72.794 560.518 72.794ZM560.374 64.406C561.046 64.406 561.61 64.496 562.066 64.676C562.534 64.844 562.906 65.09 563.182 65.414C563.47 65.726 563.674 66.104 563.794 66.548C563.914 66.98 563.974 67.46 563.974 67.988V73.838C563.83 73.862 563.626 73.898 563.362 73.946C563.11 73.982 562.822 74.018 562.498 74.054C562.174 74.09 561.82 74.12 561.436 74.144C561.064 74.18 560.692 74.198 560.32 74.198C559.792 74.198 559.306 74.144 558.862 74.036C558.418 73.928 558.034 73.76 557.71 73.532C557.386 73.292 557.134 72.98 556.954 72.596C556.774 72.212 556.684 71.75 556.684 71.21C556.684 70.694 556.786 70.25 556.99 69.878C557.206 69.506 557.494 69.206 557.854 68.978C558.214 68.75 558.634 68.582 559.114 68.474C559.594 68.366 560.098 68.312 560.626 68.312C560.794 68.312 560.968 68.324 561.148 68.348C561.328 68.36 561.496 68.384 561.652 68.42C561.82 68.444 561.964 68.468 562.084 68.492C562.204 68.516 562.288 68.534 562.336 68.546V68.078C562.336 67.802 562.306 67.532 562.246 67.268C562.186 66.992 562.078 66.752 561.922 66.548C561.766 66.332 561.55 66.164 561.274 66.044C561.01 65.912 560.662 65.846 560.23 65.846C559.678 65.846 559.192 65.888 558.772 65.972C558.364 66.044 558.058 66.122 557.854 66.206L557.656 64.82C557.872 64.724 558.232 64.634 558.736 64.55C559.24 64.454 559.786 64.406 560.374 64.406ZM570.012 66.044C570.012 66.44 570 66.866 569.976 67.322C569.964 67.766 569.934 68.216 569.886 68.672C569.838 69.116 569.772 69.56 569.688 70.004C569.604 70.436 569.496 70.844 569.364 71.228C569.232 71.612 569.064 71.972 568.86 72.308C568.668 72.644 568.428 72.944 568.14 73.208C567.852 73.46 567.516 73.676 567.132 73.856C566.748 74.024 566.298 74.132 565.782 74.18L565.548 72.776C566.136 72.656 566.598 72.434 566.934 72.11C567.282 71.786 567.558 71.39 567.762 70.922C567.942 70.514 568.074 70.052 568.158 69.536C568.242 69.02 568.302 68.486 568.338 67.934C568.374 67.37 568.392 66.806 568.392 66.242C568.404 65.678 568.41 65.144 568.41 64.64H574.638V74H572.964V66.044H570.012ZM585.378 64.64V74H583.758V66.872C583.398 67.328 583.002 67.862 582.57 68.474C582.138 69.086 581.706 69.722 581.274 70.382C580.842 71.03 580.428 71.672 580.032 72.308C579.636 72.944 579.294 73.508 579.006 74H577.512V64.64H579.132V71.372C579.444 70.856 579.798 70.292 580.194 69.68C580.59 69.056 580.998 68.444 581.418 67.844C581.85 67.232 582.276 66.65 582.696 66.098C583.128 65.534 583.53 65.048 583.902 64.64H585.378ZM592.321 74.216C591.565 74.216 590.899 74.096 590.323 73.856C589.759 73.616 589.279 73.28 588.883 72.848C588.499 72.416 588.211 71.906 588.019 71.318C587.827 70.718 587.731 70.058 587.731 69.338C587.731 68.618 587.833 67.958 588.037 67.358C588.253 66.758 588.553 66.242 588.937 65.81C589.321 65.366 589.789 65.024 590.341 64.784C590.905 64.532 591.529 64.406 592.213 64.406C592.633 64.406 593.053 64.442 593.473 64.514C593.893 64.586 594.295 64.7 594.679 64.856L594.301 66.278C594.049 66.158 593.755 66.062 593.419 65.99C593.095 65.918 592.747 65.882 592.375 65.882C591.439 65.882 590.719 66.176 590.215 66.764C589.723 67.352 589.477 68.21 589.477 69.338C589.477 69.842 589.531 70.304 589.639 70.724C589.759 71.144 589.939 71.504 590.179 71.804C590.431 72.104 590.749 72.338 591.133 72.506C591.517 72.662 591.985 72.74 592.537 72.74C592.981 72.74 593.383 72.698 593.743 72.614C594.103 72.53 594.385 72.44 594.589 72.344L594.823 73.748C594.727 73.808 594.589 73.868 594.409 73.928C594.229 73.976 594.025 74.018 593.797 74.054C593.569 74.102 593.323 74.138 593.059 74.162C592.807 74.198 592.561 74.216 592.321 74.216ZM603.489 64.64V66.044H600.447V74H598.773V66.044H595.731V64.64H603.489ZM608.383 72.794C608.779 72.794 609.127 72.788 609.427 72.776C609.739 72.752 609.997 72.716 610.201 72.668V69.878C610.081 69.818 609.883 69.77 609.607 69.734C609.343 69.686 609.019 69.662 608.635 69.662C608.383 69.662 608.113 69.68 607.825 69.716C607.549 69.752 607.291 69.83 607.051 69.95C606.823 70.058 606.631 70.214 606.475 70.418C606.319 70.61 606.241 70.868 606.241 71.192C606.241 71.792 606.433 72.212 606.817 72.452C607.201 72.68 607.723 72.794 608.383 72.794ZM608.239 64.406C608.911 64.406 609.475 64.496 609.931 64.676C610.399 64.844 610.771 65.09 611.047 65.414C611.335 65.726 611.539 66.104 611.659 66.548C611.779 66.98 611.839 67.46 611.839 67.988V73.838C611.695 73.862 611.491 73.898 611.227 73.946C610.975 73.982 610.687 74.018 610.363 74.054C610.039 74.09 609.685 74.12 609.301 74.144C608.929 74.18 608.557 74.198 608.185 74.198C607.657 74.198 607.171 74.144 606.727 74.036C606.283 73.928 605.899 73.76 605.575 73.532C605.251 73.292 604.999 72.98 604.819 72.596C604.639 72.212 604.549 71.75 604.549 71.21C604.549 70.694 604.651 70.25 604.855 69.878C605.071 69.506 605.359 69.206 605.719 68.978C606.079 68.75 606.499 68.582 606.979 68.474C607.459 68.366 607.963 68.312 608.491 68.312C608.659 68.312 608.833 68.324 609.013 68.348C609.193 68.36 609.361 68.384 609.517 68.42C609.685 68.444 609.829 68.468 609.949 68.492C610.069 68.516 610.153 68.534 610.201 68.546V68.078C610.201 67.802 610.171 67.532 610.111 67.268C610.051 66.992 609.943 66.752 609.787 66.548C609.631 66.332 609.415 66.164 609.139 66.044C608.875 65.912 608.527 65.846 608.095 65.846C607.543 65.846 607.057 65.888 606.637 65.972C606.229 66.044 605.923 66.122 605.719 66.206L605.521 64.82C605.737 64.724 606.097 64.634 606.601 64.55C607.105 64.454 607.651 64.406 608.239 64.406ZM616.402 67.106C616.282 68.294 616.192 69.482 616.132 70.67C616.072 71.846 616.024 72.956 615.988 74H614.386C614.41 73.268 614.446 72.506 614.494 71.714C614.542 70.91 614.596 70.106 614.656 69.302C614.716 68.486 614.782 67.688 614.854 66.908C614.926 66.116 615.004 65.36 615.088 64.64H616.618C617.002 65.264 617.452 66.122 617.968 67.214C618.484 68.294 619.078 69.542 619.75 70.958C620.422 69.542 621.016 68.294 621.532 67.214C622.048 66.122 622.498 65.264 622.882 64.64H624.43C624.514 65.36 624.592 66.116 624.664 66.908C624.736 67.688 624.802 68.486 624.862 69.302C624.922 70.106 624.976 70.91 625.024 71.714C625.072 72.506 625.108 73.268 625.132 74H623.476C623.44 72.956 623.392 71.846 623.332 70.67C623.272 69.482 623.182 68.294 623.062 67.106C622.87 67.478 622.648 67.928 622.396 68.456C622.144 68.972 621.892 69.5 621.64 70.04C621.4 70.58 621.172 71.096 620.956 71.588C620.74 72.08 620.572 72.47 620.452 72.758H619.048C618.916 72.458 618.736 72.062 618.508 71.57C618.292 71.078 618.058 70.562 617.806 70.022C617.566 69.47 617.32 68.936 617.068 68.42C616.816 67.892 616.594 67.454 616.402 67.106Z" fill="black"/>
<path d="M668.044 68.754C668.044 67.686 668.2 66.744 668.512 65.928C668.836 65.112 669.268 64.434 669.808 63.894C670.36 63.342 670.996 62.928 671.716 62.652C672.448 62.376 673.222 62.238 674.038 62.238C674.842 62.238 675.598 62.376 676.306 62.652C677.026 62.928 677.656 63.342 678.196 63.894C678.736 64.434 679.162 65.112 679.474 65.928C679.798 66.744 679.96 67.686 679.96 68.754C679.96 69.822 679.798 70.764 679.474 71.58C679.162 72.396 678.736 73.08 678.196 73.632C677.656 74.172 677.026 74.58 676.306 74.856C675.598 75.132 674.842 75.27 674.038 75.27C673.222 75.27 672.448 75.132 671.716 74.856C670.996 74.58 670.36 74.172 669.808 73.632C669.268 73.08 668.836 72.396 668.512 71.58C668.2 70.764 668.044 69.822 668.044 68.754ZM669.88 68.754C669.88 69.51 669.976 70.2 670.168 70.824C670.36 71.436 670.63 71.958 670.978 72.39C671.338 72.822 671.77 73.158 672.274 73.398C672.79 73.626 673.366 73.74 674.002 73.74C674.638 73.74 675.208 73.626 675.712 73.398C676.216 73.158 676.642 72.822 676.99 72.39C677.35 71.958 677.626 71.436 677.818 70.824C678.01 70.2 678.106 69.51 678.106 68.754C678.106 67.998 678.01 67.314 677.818 66.702C677.626 66.078 677.35 65.55 676.99 65.118C676.642 64.686 676.216 64.356 675.712 64.128C675.208 63.888 674.638 63.768 674.002 63.768C673.366 63.768 672.79 63.888 672.274 64.128C671.77 64.356 671.338 64.686 670.978 65.118C670.63 65.55 670.36 66.078 670.168 66.702C669.976 67.314 669.88 67.998 669.88 68.754ZM694.14 75H692.466V67.044H688.29V75H686.616V65.64H694.14V75ZM703.52 70.338C703.52 69.246 703.25 68.406 702.71 67.818C702.17 67.23 701.45 66.936 700.55 66.936C700.046 66.936 699.65 66.954 699.362 66.99C699.086 67.026 698.864 67.068 698.696 67.116V73.02C698.9 73.188 699.194 73.35 699.578 73.506C699.962 73.662 700.382 73.74 700.838 73.74C701.318 73.74 701.726 73.656 702.062 73.488C702.41 73.308 702.692 73.068 702.908 72.768C703.124 72.456 703.28 72.096 703.376 71.688C703.472 71.268 703.52 70.818 703.52 70.338ZM705.266 70.338C705.266 71.046 705.17 71.7 704.978 72.3C704.798 72.9 704.528 73.416 704.168 73.848C703.808 74.28 703.364 74.616 702.836 74.856C702.32 75.096 701.726 75.216 701.054 75.216C700.514 75.216 700.034 75.144 699.614 75C699.206 74.856 698.9 74.718 698.696 74.586V78.33H697.022V65.928C697.418 65.832 697.91 65.73 698.498 65.622C699.098 65.502 699.788 65.442 700.568 65.442C701.288 65.442 701.936 65.556 702.512 65.784C703.088 66.012 703.58 66.336 703.988 66.756C704.396 67.176 704.708 67.692 704.924 68.304C705.152 68.904 705.266 69.582 705.266 70.338ZM715.884 70.32C715.884 71.064 715.776 71.736 715.56 72.336C715.344 72.936 715.038 73.452 714.642 73.884C714.258 74.316 713.796 74.652 713.256 74.892C712.716 75.12 712.128 75.234 711.492 75.234C710.856 75.234 710.268 75.12 709.728 74.892C709.188 74.652 708.72 74.316 708.324 73.884C707.94 73.452 707.64 72.936 707.424 72.336C707.208 71.736 707.1 71.064 707.1 70.32C707.1 69.588 707.208 68.922 707.424 68.322C707.64 67.71 707.94 67.188 708.324 66.756C708.72 66.324 709.188 65.994 709.728 65.766C710.268 65.526 710.856 65.406 711.492 65.406C712.128 65.406 712.716 65.526 713.256 65.766C713.796 65.994 714.258 66.324 714.642 66.756C715.038 67.188 715.344 67.71 715.56 68.322C715.776 68.922 715.884 69.588 715.884 70.32ZM714.138 70.32C714.138 69.264 713.898 68.43 713.418 67.818C712.95 67.194 712.308 66.882 711.492 66.882C710.676 66.882 710.028 67.194 709.548 67.818C709.08 68.43 708.846 69.264 708.846 70.32C708.846 71.376 709.08 72.216 709.548 72.84C710.028 73.452 710.676 73.758 711.492 73.758C712.308 73.758 712.95 73.452 713.418 72.84C713.898 72.216 714.138 71.376 714.138 70.32ZM717.717 70.338C717.717 69.51 717.837 68.79 718.077 68.178C718.317 67.554 718.635 67.038 719.031 66.63C719.427 66.222 719.883 65.916 720.399 65.712C720.915 65.508 721.443 65.406 721.983 65.406C723.243 65.406 724.209 65.802 724.881 66.594C725.553 67.374 725.889 68.568 725.889 70.176C725.889 70.248 725.889 70.344 725.889 70.464C725.889 70.572 725.883 70.674 725.871 70.77H719.463C719.535 71.742 719.817 72.48 720.309 72.984C720.801 73.488 721.569 73.74 722.613 73.74C723.201 73.74 723.693 73.692 724.089 73.596C724.497 73.488 724.803 73.386 725.007 73.29L725.241 74.694C725.037 74.802 724.677 74.916 724.161 75.036C723.657 75.156 723.081 75.216 722.433 75.216C721.617 75.216 720.909 75.096 720.309 74.856C719.721 74.604 719.235 74.262 718.851 73.83C718.467 73.398 718.179 72.888 717.987 72.3C717.807 71.7 717.717 71.046 717.717 70.338ZM724.143 69.42C724.155 68.664 723.963 68.046 723.567 67.566C723.183 67.074 722.649 66.828 721.965 66.828C721.581 66.828 721.239 66.906 720.939 67.062C720.651 67.206 720.405 67.398 720.201 67.638C719.997 67.878 719.835 68.154 719.715 68.466C719.607 68.778 719.535 69.096 719.499 69.42H724.143ZM731.714 69.906C732.086 70.17 732.488 70.506 732.92 70.914C733.352 71.31 733.772 71.742 734.18 72.21C734.6 72.678 734.99 73.158 735.35 73.65C735.71 74.13 736.016 74.58 736.268 75H734.288C734.024 74.592 733.712 74.178 733.352 73.758C733.004 73.326 732.638 72.912 732.254 72.516C731.87 72.12 731.48 71.754 731.084 71.418C730.688 71.082 730.316 70.8 729.968 70.572V75H728.294V65.64H729.968V69.654C730.256 69.378 730.586 69.06 730.958 68.7C731.33 68.328 731.702 67.956 732.074 67.584C732.458 67.2 732.812 66.84 733.136 66.504C733.46 66.156 733.724 65.868 733.928 65.64H735.872C735.608 65.928 735.296 66.258 734.936 66.63C734.588 66.99 734.222 67.362 733.838 67.746C733.466 68.13 733.094 68.514 732.722 68.898C732.35 69.27 732.014 69.606 731.714 69.906ZM744.567 65.64V67.044H741.525V75H739.851V67.044H736.809V65.64H744.567ZM745.772 70.338C745.772 69.51 745.892 68.79 746.132 68.178C746.372 67.554 746.69 67.038 747.086 66.63C747.482 66.222 747.938 65.916 748.454 65.712C748.97 65.508 749.498 65.406 750.038 65.406C751.298 65.406 752.264 65.802 752.936 66.594C753.608 67.374 753.944 68.568 753.944 70.176C753.944 70.248 753.944 70.344 753.944 70.464C753.944 70.572 753.938 70.674 753.926 70.77H747.518C747.59 71.742 747.872 72.48 748.364 72.984C748.856 73.488 749.624 73.74 750.668 73.74C751.256 73.74 751.748 73.692 752.144 73.596C752.552 73.488 752.858 73.386 753.062 73.29L753.296 74.694C753.092 74.802 752.732 74.916 752.216 75.036C751.712 75.156 751.136 75.216 750.488 75.216C749.672 75.216 748.964 75.096 748.364 74.856C747.776 74.604 747.29 74.262 746.906 73.83C746.522 73.398 746.234 72.888 746.042 72.3C745.862 71.7 745.772 71.046 745.772 70.338ZM752.198 69.42C752.21 68.664 752.018 68.046 751.622 67.566C751.238 67.074 750.704 66.828 750.02 66.828C749.636 66.828 749.294 66.906 748.994 67.062C748.706 67.206 748.46 67.398 748.256 67.638C748.052 67.878 747.89 68.154 747.77 68.466C747.662 68.778 747.59 69.096 747.554 69.42H752.198Z" fill="black"/>
<path d="M1025.86 62.4C1027.61 62.4 1028.96 62.736 1029.89 63.408C1030.84 64.068 1031.31 65.058 1031.31 66.378C1031.31 67.098 1031.18 67.716 1030.92 68.232C1030.67 68.736 1030.29 69.15 1029.8 69.474C1029.32 69.786 1028.73 70.014 1028.04 70.158C1027.34 70.302 1026.56 70.374 1025.68 70.374H1024.29V75H1022.55V62.706C1023.04 62.586 1023.59 62.508 1024.19 62.472C1024.8 62.424 1025.36 62.4 1025.86 62.4ZM1026 63.93C1025.26 63.93 1024.69 63.948 1024.29 63.984V68.88H1025.61C1026.21 68.88 1026.75 68.844 1027.23 68.772C1027.71 68.688 1028.11 68.556 1028.43 68.376C1028.77 68.184 1029.03 67.926 1029.21 67.602C1029.39 67.278 1029.48 66.864 1029.48 66.36C1029.48 65.88 1029.38 65.484 1029.19 65.172C1029.01 64.86 1028.76 64.614 1028.43 64.434C1028.12 64.242 1027.76 64.11 1027.34 64.038C1026.92 63.966 1026.47 63.93 1026 63.93ZM1032.87 70.338C1032.87 69.51 1032.99 68.79 1033.23 68.178C1033.47 67.554 1033.79 67.038 1034.18 66.63C1034.58 66.222 1035.04 65.916 1035.55 65.712C1036.07 65.508 1036.6 65.406 1037.14 65.406C1038.4 65.406 1039.36 65.802 1040.03 66.594C1040.71 67.374 1041.04 68.568 1041.04 70.176C1041.04 70.248 1041.04 70.344 1041.04 70.464C1041.04 70.572 1041.04 70.674 1041.02 70.77H1034.62C1034.69 71.742 1034.97 72.48 1035.46 72.984C1035.95 73.488 1036.72 73.74 1037.77 73.74C1038.35 73.74 1038.85 73.692 1039.24 73.596C1039.65 73.488 1039.96 73.386 1040.16 73.29L1040.39 74.694C1040.19 74.802 1039.83 74.916 1039.31 75.036C1038.81 75.156 1038.23 75.216 1037.59 75.216C1036.77 75.216 1036.06 75.096 1035.46 74.856C1034.87 74.604 1034.39 74.262 1034 73.83C1033.62 73.398 1033.33 72.888 1033.14 72.3C1032.96 71.7 1032.87 71.046 1032.87 70.338ZM1039.3 69.42C1039.31 68.664 1039.12 68.046 1038.72 67.566C1038.34 67.074 1037.8 66.828 1037.12 66.828C1036.73 66.828 1036.39 66.906 1036.09 67.062C1035.8 67.206 1035.56 67.398 1035.35 67.638C1035.15 67.878 1034.99 68.154 1034.87 68.466C1034.76 68.778 1034.69 69.096 1034.65 69.42H1039.3ZM1049.24 67.044H1045.12V75H1043.45V65.64H1049.24V67.044ZM1058.84 65.64V75H1057.22V67.872C1056.86 68.328 1056.46 68.862 1056.03 69.474C1055.6 70.086 1055.16 70.722 1054.73 71.382C1054.3 72.03 1053.89 72.672 1053.49 73.308C1053.09 73.944 1052.75 74.508 1052.46 75H1050.97V65.64H1052.59V72.372C1052.9 71.856 1053.26 71.292 1053.65 70.68C1054.05 70.056 1054.46 69.444 1054.88 68.844C1055.31 68.232 1055.73 67.65 1056.15 67.098C1056.59 66.534 1056.99 66.048 1057.36 65.64H1058.84ZM1065.78 75.216C1065.02 75.216 1064.36 75.096 1063.78 74.856C1063.22 74.616 1062.74 74.28 1062.34 73.848C1061.96 73.416 1061.67 72.906 1061.48 72.318C1061.28 71.718 1061.19 71.058 1061.19 70.338C1061.19 69.618 1061.29 68.958 1061.49 68.358C1061.71 67.758 1062.01 67.242 1062.39 66.81C1062.78 66.366 1063.25 66.024 1063.8 65.784C1064.36 65.532 1064.99 65.406 1065.67 65.406C1066.09 65.406 1066.51 65.442 1066.93 65.514C1067.35 65.586 1067.75 65.7 1068.14 65.856L1067.76 67.278C1067.51 67.158 1067.21 67.062 1066.88 66.99C1066.55 66.918 1066.2 66.882 1065.83 66.882C1064.9 66.882 1064.18 67.176 1063.67 67.764C1063.18 68.352 1062.93 69.21 1062.93 70.338C1062.93 70.842 1062.99 71.304 1063.1 71.724C1063.22 72.144 1063.4 72.504 1063.64 72.804C1063.89 73.104 1064.21 73.338 1064.59 73.506C1064.97 73.662 1065.44 73.74 1065.99 73.74C1066.44 73.74 1066.84 73.698 1067.2 73.614C1067.56 73.53 1067.84 73.44 1068.05 73.344L1068.28 74.748C1068.18 74.808 1068.05 74.868 1067.87 74.928C1067.69 74.976 1067.48 75.018 1067.25 75.054C1067.03 75.102 1066.78 75.138 1066.52 75.162C1066.26 75.198 1066.02 75.216 1065.78 75.216ZM1076.95 65.64V67.044H1073.9V75H1072.23V67.044H1069.19V65.64H1076.95ZM1085.17 70.338C1085.17 69.246 1084.9 68.406 1084.36 67.818C1083.82 67.23 1083.1 66.936 1082.2 66.936C1081.7 66.936 1081.3 66.954 1081.01 66.99C1080.74 67.026 1080.51 67.068 1080.35 67.116V73.02C1080.55 73.188 1080.84 73.35 1081.23 73.506C1081.61 73.662 1082.03 73.74 1082.49 73.74C1082.97 73.74 1083.38 73.656 1083.71 73.488C1084.06 73.308 1084.34 73.068 1084.56 72.768C1084.77 72.456 1084.93 72.096 1085.03 71.688C1085.12 71.268 1085.17 70.818 1085.17 70.338ZM1086.92 70.338C1086.92 71.046 1086.82 71.7 1086.63 72.3C1086.45 72.9 1086.18 73.416 1085.82 73.848C1085.46 74.28 1085.01 74.616 1084.49 74.856C1083.97 75.096 1083.38 75.216 1082.7 75.216C1082.16 75.216 1081.68 75.144 1081.26 75C1080.86 74.856 1080.55 74.718 1080.35 74.586V78.33H1078.67V65.928C1079.07 65.832 1079.56 65.73 1080.15 65.622C1080.75 65.502 1081.44 65.442 1082.22 65.442C1082.94 65.442 1083.59 65.556 1084.16 65.784C1084.74 66.012 1085.23 66.336 1085.64 66.756C1086.05 67.176 1086.36 67.692 1086.57 68.304C1086.8 68.904 1086.92 69.582 1086.92 70.338ZM1092.44 73.794C1092.84 73.794 1093.18 73.788 1093.48 73.776C1093.8 73.752 1094.05 73.716 1094.26 73.668V70.878C1094.14 70.818 1093.94 70.77 1093.66 70.734C1093.4 70.686 1093.08 70.662 1092.69 70.662C1092.44 70.662 1092.17 70.68 1091.88 70.716C1091.61 70.752 1091.35 70.83 1091.11 70.95C1090.88 71.058 1090.69 71.214 1090.53 71.418C1090.38 71.61 1090.3 71.868 1090.3 72.192C1090.3 72.792 1090.49 73.212 1090.87 73.452C1091.26 73.68 1091.78 73.794 1092.44 73.794ZM1092.3 65.406C1092.97 65.406 1093.53 65.496 1093.99 65.676C1094.46 65.844 1094.83 66.09 1095.1 66.414C1095.39 66.726 1095.6 67.104 1095.72 67.548C1095.84 67.98 1095.9 68.46 1095.9 68.988V74.838C1095.75 74.862 1095.55 74.898 1095.28 74.946C1095.03 74.982 1094.74 75.018 1094.42 75.054C1094.1 75.09 1093.74 75.12 1093.36 75.144C1092.99 75.18 1092.61 75.198 1092.24 75.198C1091.71 75.198 1091.23 75.144 1090.78 75.036C1090.34 74.928 1089.96 74.76 1089.63 74.532C1089.31 74.292 1089.06 73.98 1088.88 73.596C1088.7 73.212 1088.61 72.75 1088.61 72.21C1088.61 71.694 1088.71 71.25 1088.91 70.878C1089.13 70.506 1089.42 70.206 1089.78 69.978C1090.14 69.75 1090.56 69.582 1091.04 69.474C1091.52 69.366 1092.02 69.312 1092.55 69.312C1092.72 69.312 1092.89 69.324 1093.07 69.348C1093.25 69.36 1093.42 69.384 1093.57 69.42C1093.74 69.444 1093.89 69.468 1094.01 69.492C1094.13 69.516 1094.21 69.534 1094.26 69.546V69.078C1094.26 68.802 1094.23 68.532 1094.17 68.268C1094.11 67.992 1094 67.752 1093.84 67.548C1093.69 67.332 1093.47 67.164 1093.2 67.044C1092.93 66.912 1092.58 66.846 1092.15 66.846C1091.6 66.846 1091.11 66.888 1090.69 66.972C1090.29 67.044 1089.98 67.122 1089.78 67.206L1089.58 65.82C1089.79 65.724 1090.15 65.634 1090.66 65.55C1091.16 65.454 1091.71 65.406 1092.3 65.406ZM1106.15 73.614H1107.41V77.61H1105.82V75H1098.68V65.64H1100.35V73.614H1104.47V65.64H1106.15V73.614ZM1117.09 65.64V75H1115.47V67.872C1115.11 68.328 1114.71 68.862 1114.28 69.474C1113.85 70.086 1113.42 70.722 1112.99 71.382C1112.55 72.03 1112.14 72.672 1111.74 73.308C1111.35 73.944 1111.01 74.508 1110.72 75H1109.22V65.64H1110.84V72.372C1111.16 71.856 1111.51 71.292 1111.91 70.68C1112.3 70.056 1112.71 69.444 1113.13 68.844C1113.56 68.232 1113.99 67.65 1114.41 67.098C1114.84 66.534 1115.24 66.048 1115.61 65.64H1117.09ZM1123.83 71.364C1123.65 71.364 1123.48 71.364 1123.31 71.364C1123.14 71.352 1122.98 71.34 1122.83 71.328C1122.44 71.904 1122.07 72.522 1121.71 73.182C1121.36 73.83 1121.05 74.436 1120.77 75H1119.08C1119.23 74.652 1119.39 74.298 1119.59 73.938C1119.78 73.566 1119.97 73.206 1120.16 72.858C1120.37 72.51 1120.57 72.18 1120.77 71.868C1120.98 71.556 1121.17 71.274 1121.35 71.022C1121.01 70.902 1120.74 70.758 1120.52 70.59C1120.31 70.41 1120.13 70.212 1120 69.996C1119.87 69.78 1119.77 69.552 1119.71 69.312C1119.66 69.06 1119.64 68.808 1119.64 68.556C1119.64 68.028 1119.74 67.566 1119.93 67.17C1120.13 66.774 1120.41 66.45 1120.76 66.198C1121.1 65.934 1121.51 65.736 1121.98 65.604C1122.46 65.472 1122.98 65.406 1123.55 65.406C1124.34 65.406 1125.01 65.442 1125.56 65.514C1126.11 65.586 1126.58 65.67 1126.95 65.766V75H1125.29V71.364H1123.83ZM1125.29 66.882C1125.16 66.858 1124.94 66.834 1124.63 66.81C1124.33 66.786 1123.98 66.774 1123.58 66.774C1122.9 66.774 1122.35 66.918 1121.93 67.206C1121.51 67.482 1121.3 67.926 1121.3 68.538C1121.3 69.138 1121.51 69.552 1121.94 69.78C1122.38 70.008 1122.93 70.122 1123.62 70.122H1125.29V66.882Z" fill="black"/>
<path d="M803.205 157.445C891.039 184.459 1031.57 293.359 1069.34 293.359C1151.03 305.178 1219.36 267.021 1285.41 256.215C1351.46 245.409 1415.99 323.75 1440 364.271C1431.8 509.472 1386.6 785.859 1109.75 746.689C879.621 714.13 854.916 627.842 804.962 586.293C759.289 548.304 685.452 551.681 644.226 474.86C609.825 410.757 657.401 380.311 650.374 331.348C643.348 282.385 611.363 247.352 644.226 193.745C678.767 137.401 747.892 140.433 803.205 157.445Z" fill="#C0EEF2"/>
<path d="M980.926 156.506L952.276 205.387L925.84 175.065L980.926 156.506Z" stroke="#C0EEF2" stroke-width="5"/>
<ellipse cx="983.619" cy="203.158" rx="10.5401" ry="10.1303" stroke="#181823" stroke-width="5"/>
<ellipse cx="977.91" cy="767.499" rx="33.816" ry="32.5013" stroke="#C0EEF2" stroke-width="5"/>
<path d="M104.104 289.544L94.6934 228.886L149.827 259.76L104.104 289.544Z" stroke="#C0EEF2" stroke-width="3"/>
<ellipse cx="100.89" cy="271.538" rx="7.90504" ry="7.5977" stroke="#181823" stroke-width="3"/>
<path d="M930.904 336.139C930.037 337.962 921.998 347.016 918.003 352.097C916.657 353.81 915.611 355.676 914.426 357.493C912.476 360.484 910.885 363.553 909.239 366.717C908.613 367.92 905.122 377.284 907.307 377.628C910.046 378.058 911.985 375.471 914.03 374.052C917.485 371.655 921.021 369.934 924.798 368.085C930.505 365.291 936.458 363.416 942.76 362.599C945.88 362.195 949.084 361.766 952.231 361.672C959.125 361.466 965.09 363.3 971.578 365.241" stroke="white" stroke-width="10" stroke-linecap="round"/>
<path d="M1036.34 250.782C1032.31 256.378 1021.23 268.226 1012.34 275.307C1005.52 280.74 993.178 286.312 985.41 290.236" stroke="white" stroke-width="10" stroke-linecap="round"/>
<path d="M1029.45 444.789C1027.71 454.605 1026.58 464.858 1023.17 474.27C1021.54 478.744 1019.35 482.925 1017.17 487.123" stroke="white" stroke-width="10" stroke-linecap="round"/>
<path d="M1075.49 463.815C1074.27 460.33 1072.45 457.01 1070.63 453.813C1069.47 451.776 1068.2 449.994 1066.45 448.463C1062.38 444.912 1056.6 442.548 1051.4 441.594C1045.91 440.586 1039.4 442.102 1035 445.637C1027.72 451.483 1023.95 460.327 1020.13 468.573" stroke="white" stroke-width="20" stroke-linecap="square"/>
<path d="M986.931 512.894C995.213 504.104 1002.9 495.273 1009.99 485.499" stroke="white" stroke-width="10" stroke-linecap="round"/>
<path d="M986.507 495.549C982.442 500.491 980.12 506.578 975.221 510.927C971.63 514.114 966.544 515.874 962.24 517.854C957.144 520.199 951.627 521.248 946.136 522.2C939.147 523.413 932.178 523.344 925.114 523.648C917.411 523.979 910.401 525.418 902.9 526.887" stroke="white" stroke-width="10" stroke-linecap="round"/>
<path d="M1047.36 434.328C1052.69 434.906 1056.02 435.792 1060.21 439.098C1064.06 442.14 1068.24 445.728 1070.01 450.496C1071.49 454.501 1071.89 458.877 1072.41 463.093C1073.72 473.677 1072.7 477.23 1070.06 487.202" stroke="white" stroke-width="10"/>
<path d="M1140.84 339.676C1139.95 342.669 1134.76 357.015 1133.56 359.879C1132.43 362.588 1132.24 362.999 1131.72 368.503C1131.19 374.007 1128.57 389.523 1127.37 394.917" stroke="white" stroke-width="10" stroke-linecap="round"/>
<path d="M1053.73 431.11C1057.09 431.85 1059.89 433.576 1062.5 435.56" stroke="white" stroke-width="10" stroke-linecap="round"/>
<path d="M1008.11 480.987L1014.15 495.521C1014.15 495.521 1024.6 470.925 1025.58 455.083C1026.06 447.377 1026.58 442.842 1024.67 435.594C1023.45 430.915 1019.93 424.202 1019.93 424.202C1014.54 411.239 1014.2 398.441 966.87 401.884C919.541 405.327 906.578 445.184 906.013 464.682C912.721 447.784 921.794 445.352 925.491 446.248C933.525 452.238 941.859 471.195 910.923 499.112C879.987 527.029 883.022 551.007 888.407 559.507C886.94 548.883 893.743 525.999 932.689 519.457C971.635 512.915 989.928 491.01 994.206 480.875L983.066 519.343L1008.11 480.987Z" fill="white" stroke="black" stroke-width="5" stroke-linejoin="round"/>
<path d="M959.243 390.12C955.473 379.692 964.439 375.688 969.394 374.99C970.311 372.055 971.347 368.975 972.501 365.767C965.729 360.198 944.829 352.947 915.405 368.497C923.299 343.284 954.594 290.881 1016.62 282.976C1055 229.289 1115.03 176.656 1198.9 166.864C1213.42 248.352 1174.25 318.922 1128.2 368.906C1142.58 436.369 1092.63 480.583 1065.85 494.258C1084.06 465.059 1068.07 438.273 1057.79 428.53C1054.41 430.705 1051.14 432.704 1048.02 434.519C1047.2 445.353 1038.34 447.653 1034.01 447.449L959.243 390.12Z" fill="white"/>
<path d="M969.394 374.99L1048.02 434.519M969.394 374.99C964.439 375.688 955.473 379.692 959.243 390.12L1034.01 447.449C1038.34 447.653 1047.2 445.353 1048.02 434.519M969.394 374.99C970.311 372.055 971.347 368.975 972.501 365.767M1048.02 434.519C1051.14 432.704 1054.41 430.705 1057.79 428.53M1057.79 428.53C1068.07 438.273 1084.06 465.059 1065.85 494.258C1092.63 480.583 1142.58 436.369 1128.2 368.906M1057.79 428.53C1078.8 415.03 1104.42 394.712 1128.2 368.906M1128.2 368.906C1174.25 318.922 1213.42 248.352 1198.9 166.864C1115.03 176.656 1055 229.289 1016.62 282.976M972.501 365.767C965.729 360.198 944.829 352.947 915.405 368.497C923.299 343.284 954.594 290.881 1016.62 282.976M972.501 365.767C980.86 342.526 995.443 312.591 1016.62 282.976" stroke="white" stroke-width="5"/>
<path d="M957.9 390.408C953.807 380.104 962.644 375.816 967.574 374.96C968.4 371.997 969.339 368.885 970.392 365.642C963.451 360.291 942.338 353.71 913.415 370.193C920.52 344.738 950.165 291.358 1011.9 281.476C1048.59 226.586 1106.95 172.058 1190.47 159.593C1207.52 240.584 1170.57 312.377 1126.09 363.81C1142.57 430.787 1094.02 476.578 1067.69 491.101C1084.98 461.332 1068.16 435.068 1057.59 425.657C1054.27 427.939 1051.07 430.041 1048.01 431.956C1047.52 442.812 1038.74 445.393 1034.41 445.327L957.9 390.408Z" fill="white"/>
<path d="M967.574 374.96L1048.01 431.956M967.574 374.96C962.644 375.816 953.807 380.104 957.9 390.408L1034.41 445.327C1038.74 445.393 1047.52 442.812 1048.01 431.956M967.574 374.96C968.4 371.997 969.339 368.885 970.392 365.642M1048.01 431.956C1051.07 430.041 1054.27 427.939 1057.59 425.657M1057.59 425.657C1068.16 435.068 1084.98 461.333 1067.69 491.101C1094.02 476.578 1142.57 430.787 1126.09 363.81M1057.59 425.657C1078.16 411.492 1103.13 390.364 1126.09 363.81M1126.09 363.81C1170.57 312.377 1207.52 240.584 1190.47 159.593C1106.95 172.058 1048.59 226.586 1011.9 281.476M970.392 365.642C963.451 360.291 942.338 353.71 913.415 370.193C920.52 344.738 950.165 291.358 1011.9 281.476M970.392 365.642C978.023 342.143 991.666 311.755 1011.9 281.476" stroke="black" stroke-width="5"/>
<ellipse cx="23.9008" cy="24.2017" rx="23.9008" ry="24.2017" transform="matrix(0.999999 0.00148006 0.00146166 0.999999 1266.79 122.048)" fill="#C0EEF2"/>
<path d="M1020.24 412.103L1037.79 424.23L1106.68 362.95C1085.83 380.613 1050.11 406.152 1020.24 412.103Z" fill="black"/>
<path d="M1106.68 362.95L1037.79 424.23L1020.24 412.103C1050.11 406.152 1085.83 380.613 1106.68 362.95ZM1106.68 362.95C1110.52 359.696 1113.86 356.709 1116.56 354.161L1106.68 362.95Z" stroke="black" stroke-width="3" stroke-linecap="round" stroke-linejoin="round"/>
<path d="M1132 296.1C1132.04 319.524 1113.32 338.442 1090.24 338.408C1067.17 338.374 1048.4 319.4 1048.36 295.977C1048.33 272.553 1067.05 253.635 1090.12 253.669C1113.19 253.703 1131.97 272.677 1132 296.1Z" stroke="black" stroke-width="4"/>
<path d="M966.016 376.123C960.329 380.356 960.959 388.261 965.015 394.499C970.863 399.188 975.344 403.963 970.034 399.928C968.058 398.426 966.351 396.553 965.015 394.499C962.878 392.785 960.559 391.083 958.468 389.827L957.261 381.748L966.016 376.123Z" fill="black"/>
<path d="M966.016 376.123C958.456 381.749 962.059 393.865 970.034 399.928C977.284 405.438 966.281 394.521 958.468 389.827L957.261 381.748L966.016 376.123Z" stroke="black" stroke-width="3" stroke-linecap="round" stroke-linejoin="round"/>
<path d="M968.794 368.867C967.868 371.555 965.141 376.929 961.635 376.924" stroke="black" stroke-width="3" stroke-linecap="round" stroke-linejoin="round"/>
<path d="M975.492 379.729C973.138 376.986 971.232 362.27 975.937 350.323C979.112 342.261 970.112 362.55 968.402 373.303L975.492 379.729Z" fill="black"/>
<path d="M975.492 379.729C973.138 376.986 971.232 362.27 975.937 350.323C979.112 342.261 970.112 362.55 968.402 373.303L975.492 379.729ZM975.492 379.729L975.981 380.172C981.962 384.618 977.846 382.472 975.492 379.729Z" stroke="black" stroke-width="3" stroke-linecap="round" stroke-linejoin="round"/>
<path d="M1124.83 295.686C1124.86 315.323 1109.17 331.176 1089.84 331.147C1070.5 331.119 1054.77 315.219 1054.74 295.583C1054.71 275.946 1070.4 260.093 1089.73 260.122C1109.06 260.151 1124.8 276.05 1124.83 295.686Z" stroke="black" stroke-width="4"/>
<path d="M1113.81 378.359C1114.81 377.187 1116.12 375.941 1117.56 375.032L1126.54 367.084C1128.94 375.961 1131.99 391.374 1128.15 380.397C1125.43 372.613 1121.09 372.818 1117.56 375.032L1113.81 378.359Z" fill="black"/>
<path d="M1113.81 378.359C1117.25 374.331 1124.31 369.42 1128.15 380.397C1131.99 391.374 1128.94 375.961 1126.54 367.084L1113.81 378.359Z" stroke="black" stroke-width="2" stroke-linecap="round" stroke-linejoin="round"/>
<path d="M1071.64 416.212C1063.36 422.331 1066.62 434.491 1069.28 439.201L1058.11 425.066C1066.06 419.566 1079.91 410.094 1071.64 416.212Z" fill="black" stroke="black" stroke-width="2" stroke-linecap="round" stroke-linejoin="round"/>
<path d="M1022.42 266.09L1011.29 281.401L994.585 285.311C994.438 285.35 994.298 285.383 994.166 285.409L994.585 285.311C999.642 283.979 1013.76 275.483 1022.42 266.09Z" fill="black"/>
<path d="M1022.42 266.09L1011.29 281.401L994.166 285.409C998.812 284.475 1013.51 275.757 1022.42 266.09Z" stroke="black" stroke-width="2" stroke-linecap="round" stroke-linejoin="round"/>
<path d="M948.463 358.753C966.943 356.522 978.446 340.646 981.887 332.987L969.586 365.641L963.606 362.406L952.447 358.759C943.419 359.687 929.983 360.984 948.463 358.753Z" fill="black" stroke="black" stroke-width="2" stroke-linecap="round" stroke-linejoin="round"/>
<path d="M1108.63 382.788L1105.05 386.817C1110.03 391.846 1114.44 408.639 1110.86 423.226C1116.87 402.113 1112.71 388.161 1108.63 382.788Z" fill="black"/>
<path d="M1097.98 452.151C1103.6 442.702 1107.43 434.082 1109.91 426.353M1109.91 426.353C1110.29 425.305 1110.61 424.262 1110.86 423.226M1109.91 426.353C1110.26 425.294 1110.57 424.252 1110.86 423.226M1110.86 423.226C1114.44 408.639 1110.03 391.846 1105.05 386.817L1108.63 382.788C1112.71 388.161 1116.87 402.113 1110.86 423.226Z" stroke="black" stroke-width="3" stroke-linecap="round" stroke-linejoin="round"/>
<path d="M1002.54 294.699C997.086 295.506 985.308 299.237 971.095 307.997C991.159 299.665 995.919 303.451 995.79 306.386L1002.54 294.699Z" fill="black"/>
<path d="M949.21 324.468C956.782 317.644 964.223 312.233 971.095 307.997M971.095 307.997C985.308 299.237 997.086 295.506 1002.54 294.699L995.79 306.386C995.919 303.451 991.159 299.665 971.095 307.997Z" stroke="black" stroke-width="3" stroke-linecap="round" stroke-linejoin="round"/>
<path d="M956.073 386.596C957.507 389.709 959.038 400.881 952.49 403.715C945.942 406.549 961.458 402.84 970.035 400.631L956.073 386.596Z" fill="black" stroke="black" stroke-width="3" stroke-linecap="round" stroke-linejoin="round"/>
<path d="M964.004 362.406C965.732 363.619 968.95 366.851 967.999 370.076" stroke="black" stroke-width="3" stroke-linecap="round" stroke-linejoin="round"/>
<path d="M1008.32 427.413C1011.25 438.846 1009.01 465.088 976.523 478.593C990.187 470.142 1014.08 447.025 1000.34 422.157L1008.32 427.413Z" fill="black" stroke="black" stroke-width="3" stroke-linecap="round" stroke-linejoin="round"/>
<path d="M987.58 412.861C980.407 410.699 963.037 409.033 950.943 419.664" stroke="black" stroke-width="3" stroke-linecap="round" stroke-linejoin="round"/>
<path d="M916.328 448.251L939.404 428.924C938.212 431.343 933.055 445.695 933.078 461.184L929.875 450.288L927.875 445.042L916.328 448.251Z" fill="black" stroke="black" stroke-width="3" stroke-linecap="round" stroke-linejoin="round"/>
<path d="M1170.48 177.569C1099.75 194.89 1062.47 231.998 1052.67 248.386C1100.4 198.763 1151.1 186.952 1170.49 187.25L1170.48 177.569Z" fill="black" stroke="black" stroke-width="3" stroke-linecap="round" stroke-linejoin="round"/>
<path d="M533.535 534.185L525.323 468.208L579.16 507.22L533.535 534.185Z" stroke="#C0EEF2" stroke-width="5"/>
<rect x="572" y="905" width="72" height="66" stroke="#181823" stroke-width="5"/>
<path d="M1021.04 879.583L1054.98 787.688L1115.67 854.24L1021.04 879.583Z" stroke="#181823" stroke-width="5"/>
<path d="M1331.77 346.745C1333.55 342.712 1339.29 342.781 1340.97 346.856L1346.8 361.017C1347.48 362.669 1348.99 363.833 1350.76 364.069L1366.99 366.235C1371.27 366.805 1372.86 372.15 1369.61 374.971L1357.6 385.362C1356.23 386.555 1355.61 388.405 1355.99 390.187L1359.71 407.581C1360.63 411.882 1355.95 415.189 1352.2 412.887L1339.12 404.848C1337.51 403.862 1335.49 403.862 1333.88 404.848L1321.13 412.682C1317.34 415.014 1312.62 411.594 1313.65 407.261L1317.7 390.306C1318.14 388.462 1317.5 386.528 1316.04 385.311L1303.67 374.957C1300.34 372.172 1301.9 366.758 1306.2 366.169L1321.54 364.067C1323.26 363.831 1324.74 362.718 1325.44 361.127L1331.77 346.745Z" fill="white"/>
<path d="M1337.13 349.888L1343.89 361.519C1345.11 363.622 1347.34 364.939 1349.77 364.998L1364.51 365.358C1367.2 365.423 1368.45 368.714 1366.49 370.549L1357.27 379.168C1355.25 381.05 1354.53 383.938 1355.42 386.546L1359.97 399.838C1360.81 402.3 1358.33 404.594 1355.94 403.563L1342.43 397.736C1340.24 396.79 1337.71 397.028 1335.74 398.368L1323.9 406.388C1321.71 407.869 1318.82 406.008 1319.26 403.405L1321.53 389.922C1322.01 387.098 1320.72 384.268 1318.27 382.778L1307.3 376.095C1304.99 374.687 1305.58 371.181 1308.22 370.602L1321.74 367.64C1324.05 367.135 1325.94 365.502 1326.78 363.296L1331.73 350.327C1332.63 347.97 1335.86 347.707 1337.13 349.888Z" stroke="black" stroke-width="4"/>
<circle cx="1285" cy="406" r="9" fill="white"/>
<circle cx="1354.5" cy="331.5" r="4.5" fill="white"/>
<circle cx="820.5" cy="336.5" r="42.5" fill="white"/>
<path d="M851 331.5C851 351.009 834.31 367 813.5 367C792.69 367 776 351.009 776 331.5C776 311.991 792.69 296 813.5 296C834.31 296 851 311.991 851 331.5Z" stroke="black" stroke-width="4"/>
<path d="M842 310C840.92 308.2 836.633 308.48 834.944 308.5C829.902 308.56 824.481 309.448 821.528 313.944C818.946 317.876 817.95 321.923 818.361 326.583C818.784 331.376 821.144 335.428 821.778 340.111C822.849 348.027 820.035 353.288 813.778 357.944C811.593 359.571 809.239 360.917 807.139 362.667C806.305 363.362 806.078 364 805 364" stroke="black" stroke-width="3" stroke-linecap="round"/>
<path d="M798.5 299C799.727 304.914 803.73 308.509 803.778 315C803.83 322.041 803.027 330.742 796.944 335.333C793.465 337.96 788.389 340.167 784.056 340.889C781.061 341.388 779.12 339.452 776.5 340.5" stroke="black" stroke-width="3" stroke-linecap="round"/>
<path d="M785 306.5C780.883 308.558 777.373 310.888 775.111 314.889C772.782 319.01 774 325.874 774 330.5" stroke="black" stroke-width="3" stroke-linecap="round"/>
<path d="M777.5 315C777.431 314.977 774.846 319.268 777.028 315.5C778.275 313.346 778.674 312.631 777.5 315.333C777.207 316.009 776 320.776 776 318C776 317.113 775.937 316.492 775.75 318.028C775.575 319.464 775.5 323.808 775.5 322.361C775.5 321.598 775.864 316.416 775.278 318.833C774.198 323.288 775.441 318.229 776.25 316.611C776.935 315.241 778.152 312.987 779.5 312.111C780.262 311.616 781.106 311.288 781.5 310.5" stroke="black" stroke-width="3" stroke-linecap="round"/>
<path d="M774 327C774.03 329.271 773.817 331.528 775 333.5" stroke="black" stroke-width="3" stroke-linecap="round"/>
<path d="M774 330.5C774.599 332.478 775.021 334.49 775.5 336.5" stroke="black" stroke-width="3" stroke-linecap="round"/>
<path d="M784.5 306.5C785.267 306.074 785.832 305.556 786.5 305" stroke="black" stroke-width="3" stroke-linecap="round"/>
<path d="M784 307C785.563 305.906 787.011 304.691 788.5 303.5" stroke="black" stroke-width="3" stroke-linecap="round"/>
<path d="M848 322.5C850.063 335.654 845.079 349.181 835 358" stroke="black" stroke-width="3" stroke-linecap="round"/>
<path d="M846.5 318C847.242 319.659 847.563 321.251 848 323" stroke="black" stroke-width="3" stroke-linecap="round"/>
<path d="M847.5 319.5C845.256 315.276 842.429 312.567 838 310.5" stroke="black" stroke-width="3" stroke-linecap="round"/>
<path d="M833 309C835.02 309.144 837.008 309.668 839 310" stroke="black" stroke-width="3" stroke-linecap="round"/>
<circle cx="729" cy="511" r="31" fill="white"/>
<path d="M820 352C819.344 354.215 819.149 356.777 821.056 358.472C825.765 362.659 831.979 359.177 836.5 357" stroke="black" stroke-width="3" stroke-linecap="round"/>
<path d="M799.5 362.5H807" stroke="black" stroke-width="3" stroke-linecap="round"/>
<path d="M808.5 364C810.854 363.059 813.275 362.113 815.5 361" stroke="black" stroke-width="3" stroke-linecap="round"/>
<path d="M797 363C794.04 361.97 801.252 362.603 802.222 362.444C807.006 361.66 811.474 360.197 816 358.5" stroke="black" stroke-width="3" stroke-linecap="round"/>
<path d="M826.5 363C821.625 362.713 815.754 362.01 811.056 363.889C808.619 364.864 816.516 363.917 817.333 363.75C821.531 362.891 819.132 363.714 816.833 362.889C815.18 362.295 814.515 358.456 816.111 358.722C816.568 358.798 818.915 361.44 818.5 360.556C818.268 360.06 817.646 358.541 817.833 359.056C818 359.513 818.705 361.116 818.667 361.056C818.106 360.174 817.751 359.148 817.333 358.194C817.095 357.65 818.166 359.274 818.556 359.444C818.653 359.487 818.177 358.098 818.111 357.944C817.707 357.001 819.258 359.654 819.945 360.417C821.273 361.892 821.476 361.056 819.722 361.056C816.618 361.056 817.935 361.926 818 359.111C818.134 353.34 813.67 359.308 817.583 361.917C819.308 363.066 822.16 362.217 824.028 361.75C825.082 361.486 828.046 360.732 827.278 361.5C825.884 362.894 822.178 362.686 820.389 363.722C819.664 364.142 819.86 364.472 820.695 364.417C822.973 364.265 824.602 363.084 826.5 362" stroke="black" stroke-width="3" stroke-linecap="round"/>
<path d="M810 339C809.126 340.615 803.902 356.207 808.611 353.444C813.08 350.823 815.427 339.476 809.5 337.5" stroke="black" stroke-width="3" stroke-linecap="round"/>
<path d="M808.5 297.5C808.848 300.984 811.82 304.679 815.611 303.278C820.134 301.606 823.686 300.602 828.5 300" stroke="black" stroke-width="3" stroke-linecap="round"/>
<path d="M1018 314.5C1018 320.851 1011.51 326 1003.5 326C995.492 326 989 320.851 989 314.5C989 308.149 995.492 303 1003.5 303C1011.51 303 1018 308.149 1018 314.5Z" fill="white"/>
<path d="M1018 314.5C1018 320.851 1011.51 326 1003.5 326C995.492 326 989 320.851 989 314.5C989 308.149 995.492 303 1003.5 303C1011.51 303 1018 308.149 1018 314.5Z" fill="white"/>
<path d="M991 337.5C991 341.642 987.642 345 983.5 345C979.358 345 976 341.642 976 337.5C976 333.358 979.358 330 983.5 330C987.642 330 991 333.358 991 337.5Z" fill="white"/>
<path d="M991 337.5C991 341.642 987.642 345 983.5 345C979.358 345 976 341.642 976 337.5C976 333.358 979.358 330 983.5 330C987.642 330 991 333.358 991 337.5Z" fill="white"/>
<path d="M784 279C784 285.627 778.627 291 772 291C765.373 291 760 285.627 760 279C760 272.373 765.373 267 772 267C778.627 267 784 272.373 784 279Z" fill="white"/>
<path d="M784 279C784 285.627 778.627 291 772 291C765.373 291 760 285.627 760 279C760 272.373 765.373 267 772 267C778.627 267 784 272.373 784 279Z" fill="white"/>
<circle cx="876" cy="500" r="5" fill="white"/>
<circle cx="1353" cy="664" r="59" fill="white"/>
<ellipse cx="1302" cy="763.5" rx="26" ry="22.5" fill="white"/>
<ellipse cx="1393" cy="576" rx="9" ry="10" fill="white"/>
<ellipse cx="1018.5" cy="685.5" rx="9.5" ry="10.5" fill="white"/>
<ellipse cx="1065.5" cy="668" rx="22.5" ry="22" fill="white"/>
<path d="M119.486 876.011L224.962 783.044L219.85 923.55L119.486 876.011Z" stroke="#C0EEF2" stroke-width="5"/>
<circle cx="170" cy="830" r="13.5" stroke="black" stroke-width="3"/>
<circle cx="506" cy="705" r="40.5" stroke="#C0EEF2" stroke-width="5"/>
<circle cx="872" cy="742" r="22" fill="#C0EEF2"/>
<circle cx="549" cy="764" r="16" fill="#C0EEF2"/>
<rect x="-71.4779" y="892.16" width="71" height="127" transform="rotate(-40 -71.4779 892.16)" stroke="black" stroke-width="5"/>
<circle cx="1376" cy="925" r="45.5" stroke="#C0EEF2" stroke-width="5"/>
<rect width="807" height="60" transform="translate(354 32)" fill="white"/>
</g>
<defs>
<clipPath id="clip0_299_2">
<rect width="1440" height="1024" fill="white"/>
</clipPath>
</defs>
</svg>
