<svg width="462" height="424" viewBox="0 0 462 424" fill="none" xmlns="http://www.w3.org/2000/svg">
<path d="M118.904 196.233C118.037 198.055 109.998 207.11 106.003 212.191C104.657 213.904 103.611 215.77 102.426 217.586C100.476 220.578 98.885 223.647 97.2389 226.811C96.6131 228.014 93.1216 237.378 95.3074 237.722C98.0456 238.152 99.9845 235.565 102.03 234.146C105.485 231.749 109.021 230.028 112.798 228.179C118.505 225.385 124.458 223.51 130.76 222.693C133.88 222.289 137.084 221.859 140.231 221.766C147.125 221.56 153.09 223.394 159.578 225.335" stroke="white" stroke-width="10" stroke-linecap="round"/>
<path d="M224.34 110.876C220.313 116.472 209.229 128.32 200.343 135.401C193.525 140.834 181.178 146.406 173.41 150.33" stroke="white" stroke-width="10" stroke-linecap="round"/>
<path d="M217.454 304.883C215.713 314.699 214.581 324.952 211.168 334.364C209.545 338.838 207.351 343.019 205.167 347.217" stroke="white" stroke-width="10" stroke-linecap="round"/>
<path d="M263.49 323.909C262.271 320.424 260.447 317.104 258.629 313.907C257.471 311.87 256.203 310.088 254.45 308.556C250.384 305.006 244.601 302.642 239.402 301.688C233.905 300.68 227.399 302.196 222.999 305.731C215.722 311.577 211.955 320.421 208.127 328.667" stroke="white" stroke-width="20" stroke-linecap="square"/>
<path d="M174.931 372.988C183.213 364.198 190.899 355.367 197.995 345.593" stroke="white" stroke-width="10" stroke-linecap="round"/>
<path d="M174.507 355.642C170.442 360.585 168.12 366.672 163.221 371.021C159.63 374.208 154.544 375.968 150.24 377.948C145.144 380.293 139.627 381.342 134.136 382.294C127.147 383.507 120.178 383.438 113.114 383.742C105.411 384.073 98.4008 385.512 90.9 386.981" stroke="white" stroke-width="10" stroke-linecap="round"/>
<path d="M235.364 294.422C240.688 295 244.02 295.886 248.207 299.192C252.06 302.234 256.241 305.822 258.005 310.59C259.487 314.595 259.895 318.971 260.414 323.187C261.715 333.771 260.704 337.324 258.059 347.296" stroke="white" stroke-width="10"/>
<path d="M328.837 199.77C327.955 202.763 322.758 217.109 321.564 219.972C320.434 222.682 320.24 223.093 319.717 228.597C319.195 234.101 316.57 249.617 315.374 255.011" stroke="white" stroke-width="10" stroke-linecap="round"/>
<path d="M241.733 291.204C245.091 291.944 247.892 293.67 250.503 295.654" stroke="white" stroke-width="10" stroke-linecap="round"/>
<path d="M196.105 341.081L202.154 355.615C202.154 355.615 212.604 331.019 213.583 315.177C214.059 307.471 214.576 302.936 212.675 295.688C211.447 291.009 207.933 284.296 207.933 284.296C202.538 271.333 202.198 258.535 154.87 261.978C107.541 265.421 94.5781 305.278 94.0125 324.776C100.721 307.878 109.794 305.446 113.491 306.342C121.525 312.332 129.859 331.289 98.9229 359.206C67.9869 387.123 71.0224 411.101 76.4072 419.601C74.9404 408.977 81.7433 386.093 120.689 379.551C159.635 373.009 177.928 351.104 182.206 340.969L171.066 379.437L196.105 341.081Z" fill="white" stroke="black" stroke-width="5" stroke-linejoin="round"/>
<path d="M147.243 250.214C143.473 239.786 152.439 235.782 157.394 235.084C158.311 232.15 159.347 229.069 160.501 225.861C153.729 220.292 132.829 213.041 103.405 228.591C111.299 203.378 142.594 150.976 204.616 143.07C242.997 89.3834 303.032 36.7498 386.902 26.9579C401.425 108.446 362.253 179.016 316.195 229C330.577 296.463 280.627 340.677 253.854 354.352C272.059 325.153 256.066 298.367 245.794 288.624C242.409 290.799 239.143 292.798 236.024 294.613C235.2 305.447 226.339 307.747 222.011 307.543L147.243 250.214Z" fill="white"/>
<path d="M157.394 235.084L236.024 294.613M157.394 235.084C152.439 235.782 143.473 239.786 147.243 250.214L222.011 307.543C226.339 307.747 235.2 305.447 236.024 294.613M157.394 235.084C158.311 232.15 159.347 229.069 160.501 225.861M236.024 294.613C239.143 292.798 242.409 290.799 245.794 288.624M245.794 288.624C256.066 298.367 272.059 325.153 253.854 354.352C280.627 340.678 330.577 296.463 316.195 229M245.794 288.624C266.803 275.124 292.417 254.806 316.195 229M316.195 229C362.253 179.016 401.425 108.446 386.902 26.9579C303.032 36.7498 242.997 89.3834 204.616 143.07M160.501 225.861C153.729 220.292 132.829 213.041 103.405 228.591C111.299 203.378 142.594 150.976 204.616 143.07M160.501 225.861C168.86 202.62 183.443 172.685 204.616 143.07" stroke="white" stroke-width="5"/>
<path d="M145.9 250.502C141.807 240.198 150.644 235.91 155.574 235.054C156.4 232.091 157.339 228.979 158.392 225.736C151.451 220.385 130.338 213.804 101.415 230.287C108.52 204.832 138.165 151.452 199.904 141.57C236.592 86.6801 294.953 32.1516 378.468 19.687C395.519 100.678 358.568 172.471 314.093 223.904C330.566 290.881 282.022 336.672 255.69 351.195C272.976 321.427 256.158 295.162 245.589 285.751C242.273 288.033 239.072 290.135 236.011 292.05C235.525 302.906 226.74 305.487 222.409 305.421L145.9 250.502Z" fill="white"/>
<path d="M155.574 235.054L236.011 292.05M155.574 235.054C150.644 235.91 141.807 240.198 145.9 250.502L222.409 305.421C226.74 305.487 235.525 302.906 236.011 292.05M155.574 235.054C156.4 232.091 157.339 228.979 158.392 225.736M236.011 292.05C239.072 290.135 242.273 288.033 245.589 285.751M245.589 285.751C256.158 295.162 272.976 321.427 255.69 351.195C282.022 336.672 330.566 290.881 314.093 223.904M245.589 285.751C266.165 271.586 291.131 250.458 314.093 223.904M314.093 223.904C358.568 172.471 395.519 100.678 378.468 19.687C294.953 32.1516 236.592 86.6801 199.904 141.57M158.392 225.736C151.451 220.385 130.338 213.804 101.415 230.287C108.52 204.832 138.165 151.452 199.904 141.57M158.392 225.736C166.023 202.237 179.666 171.849 199.904 141.57" stroke="black" stroke-width="5"/>
<path d="M208.244 272.197L225.789 284.324L294.679 223.044C273.828 240.707 238.105 266.246 208.244 272.197Z" fill="black"/>
<path d="M294.679 223.044L225.789 284.324L208.244 272.197C238.105 266.246 273.828 240.707 294.679 223.044ZM294.679 223.044C298.52 219.79 301.856 216.803 304.558 214.255L294.679 223.044Z" stroke="black" stroke-width="3" stroke-linecap="round" stroke-linejoin="round"/>
<path d="M320.001 156.194C320.035 179.618 301.317 198.536 278.245 198.502C255.173 198.468 236.399 179.494 236.365 156.07C236.33 132.647 255.049 113.728 278.121 113.763C301.193 113.797 319.967 132.77 320.001 156.194Z" stroke="black" stroke-width="4"/>
<path d="M154.016 236.217C148.329 240.45 148.959 248.355 153.015 254.592C158.863 259.282 163.344 264.057 158.034 260.022C156.058 258.52 154.351 256.647 153.015 254.592C150.878 252.879 148.559 251.177 146.468 249.921L145.261 241.842L154.016 236.217Z" fill="black" stroke="black" stroke-width="3" stroke-linecap="round" stroke-linejoin="round"/>
<path d="M156.794 228.961C155.868 231.649 153.141 237.023 149.635 237.018" stroke="black" stroke-width="3" stroke-linecap="round" stroke-linejoin="round"/>
<path d="M163.492 239.823C161.138 237.08 159.232 222.364 163.937 210.417C167.112 202.355 158.112 222.644 156.402 233.397L163.492 239.823Z" fill="black"/>
<path d="M163.492 239.823C161.138 237.08 159.232 222.364 163.937 210.417C167.112 202.355 158.112 222.644 156.402 233.397L163.492 239.823ZM163.492 239.823L163.981 240.266C169.962 244.712 165.846 242.566 163.492 239.823Z" stroke="black" stroke-width="3" stroke-linecap="round" stroke-linejoin="round"/>
<path d="M312.83 155.78C312.859 175.417 297.168 191.27 277.836 191.241C258.504 191.212 242.766 175.313 242.737 155.677C242.709 136.04 258.4 120.187 277.732 120.216C297.064 120.244 312.801 136.144 312.83 155.78Z" stroke="black" stroke-width="4"/>
<path d="M301.806 238.453C302.808 237.281 304.116 236.035 305.562 235.126L314.536 227.178C316.939 236.055 319.989 251.468 316.149 240.491C313.426 232.707 309.085 232.912 305.562 235.126L301.806 238.453Z" fill="black" stroke="black" stroke-width="2" stroke-linecap="round" stroke-linejoin="round"/>
<path d="M259.636 276.306C251.359 282.425 254.617 294.585 257.28 299.295L246.105 285.16C254.064 279.66 267.913 270.188 259.636 276.306Z" fill="black" stroke="black" stroke-width="2" stroke-linecap="round" stroke-linejoin="round"/>
<path d="M210.42 126.183L199.289 141.495L182.585 145.405C182.438 145.444 182.298 145.476 182.166 145.503L182.585 145.405C187.642 144.073 201.764 135.577 210.42 126.183Z" fill="black" stroke="black" stroke-width="2" stroke-linecap="round" stroke-linejoin="round"/>
<path d="M136.463 218.847C154.943 216.615 166.446 200.74 169.887 193.081L157.586 225.735L151.606 222.5L140.447 218.853C131.419 219.781 117.983 221.078 136.463 218.847Z" fill="black" stroke="black" stroke-width="2" stroke-linecap="round" stroke-linejoin="round"/>
<path d="M296.633 242.882L293.054 246.911C298.035 251.939 302.438 268.732 298.863 283.32C304.868 262.207 300.711 248.255 296.633 242.882Z" fill="black"/>
<path d="M285.979 312.245C291.601 302.796 295.427 294.176 297.915 286.447M297.915 286.447C298.295 285.399 298.609 284.356 298.863 283.32M297.915 286.447C298.255 285.388 298.571 284.346 298.863 283.32M298.863 283.32C302.438 268.732 298.035 251.939 293.054 246.911L296.633 242.882C300.711 248.255 304.868 262.207 298.863 283.32Z" stroke="black" stroke-width="3" stroke-linecap="round" stroke-linejoin="round"/>
<path d="M190.545 154.793C185.086 155.6 173.308 159.331 159.095 168.091C179.159 159.759 183.919 163.545 183.79 166.48L190.545 154.793Z" fill="black"/>
<path d="M137.21 184.562C144.782 177.738 152.223 172.327 159.095 168.091M159.095 168.091C173.308 159.331 185.086 155.6 190.545 154.793L183.79 166.48C183.919 163.545 179.159 159.759 159.095 168.091Z" stroke="black" stroke-width="3" stroke-linecap="round" stroke-linejoin="round"/>
<path d="M144.073 246.69C145.507 249.803 147.038 260.975 140.49 263.809C133.942 266.643 149.458 262.934 158.035 260.725L144.073 246.69Z" fill="black" stroke="black" stroke-width="3" stroke-linecap="round" stroke-linejoin="round"/>
<path d="M152.004 222.5C153.732 223.713 156.95 226.944 155.999 230.17" stroke="black" stroke-width="3" stroke-linecap="round" stroke-linejoin="round"/>
<path d="M196.316 287.507C199.254 298.94 197.008 325.182 164.523 338.687C178.187 330.236 202.081 307.119 188.341 282.251L196.316 287.507Z" fill="black" stroke="black" stroke-width="3" stroke-linecap="round" stroke-linejoin="round"/>
<path d="M175.58 272.955C168.407 270.793 151.037 269.127 138.943 279.758" stroke="black" stroke-width="3" stroke-linecap="round" stroke-linejoin="round"/>
<path d="M104.328 308.345L127.404 289.018C126.212 291.437 121.055 305.789 121.078 321.278L117.875 310.382L115.875 305.136L104.328 308.345Z" fill="black" stroke="black" stroke-width="3" stroke-linecap="round" stroke-linejoin="round"/>
<path d="M358.475 37.6633C287.755 54.9838 250.471 92.0916 240.669 108.48C288.398 58.857 339.103 47.0464 358.49 47.344L358.475 37.6633Z" fill="black" stroke="black" stroke-width="3" stroke-linecap="round" stroke-linejoin="round"/>
</svg>
