<svg width="1440" height="1024" viewBox="0 0 1440 1024" fill="none" xmlns="http://www.w3.org/2000/svg">
<g clip-path="url(#clip0_434_54)">
<rect width="1440" height="1024" fill="white"/>
<rect x="64.292" y="354.312" width="44.8652" height="44.6938" stroke="#181823" stroke-width="3"/>
<ellipse cx="104.546" cy="394.417" rx="24.4418" ry="24.3543" fill="#C0EEF2"/>
<path d="M327.097 99.1218C327.097 122.948 307.711 142.271 283.787 142.271C259.862 142.271 240.477 122.948 240.477 99.1218C240.477 75.2961 259.862 55.9724 283.787 55.9724C307.711 55.9724 327.097 75.2961 327.097 99.1218Z" stroke="#C0EEF2" stroke-width="3"/>
<path d="M799.638 897.231C799.638 911.81 787.776 923.637 773.132 923.637C758.488 923.637 746.626 911.81 746.626 897.231C746.626 882.653 758.488 870.825 773.132 870.825C787.776 870.825 799.638 882.653 799.638 897.231Z" stroke="#C0EEF2" stroke-width="3"/>
<path d="M228.311 677.536C228.311 694.636 214.397 708.508 197.222 708.508C180.047 708.508 166.133 694.636 166.133 677.536C166.133 660.435 180.047 646.563 197.222 646.563C214.397 646.563 228.311 660.435 228.311 677.536Z" stroke="#C0EEF2" stroke-width="3"/>
<path d="M1222.28 91.5111C1222.28 83.6579 1215.89 77.2823 1207.99 77.2823C1200.1 77.2823 1193.71 83.6579 1193.71 91.5111C1193.71 99.3644 1200.1 105.74 1207.99 105.74C1215.89 105.74 1222.28 99.3644 1222.28 91.5111Z" stroke="#C0EEF2" stroke-width="3"/>
<rect x="2.0985" y="-0.334144" width="37.6408" height="37.6861" transform="matrix(0.588498 -0.808499 0.810502 0.585736 586.37 461.306)" stroke="#181823" stroke-width="3"/>
<path d="M1278.07 675.524L1359.51 691.292L1299.24 755.452L1278.07 675.524Z" fill="#C0EEF2"/>
<rect x="1.10952" y="1.80601" width="37.7285" height="107.403" transform="matrix(0.97282 0.231564 -0.233142 0.972443 1297.83 655.004)" stroke="#181823" stroke-width="3"/>
<path d="M1032.32 75.7823L1057.89 128.296H1006.74L1032.32 75.7823Z" fill="#C0EEF2"/>
<rect x="2.0985" y="-0.334144" width="35.9578" height="119.058" transform="matrix(0.588498 -0.808499 0.810502 0.585736 87.9088 896.545)" stroke="#181823" stroke-width="3"/>
<path d="M148.222 867.027L199.207 900.134L144.939 927.577L148.222 867.027Z" fill="#C0EEF2"/>
<path d="M41.1973 38.1345L124.404 111.558L85.9573 139.504L41.1973 38.1345Z" fill="#C0EEF2"/>
<path d="M1099.19 453.964L1175.08 461.931L1083.63 528.402L1099.19 453.964Z" fill="#C0EEF2"/>
<path d="M1227.41 932.349L1139.25 903.738L1171.76 858.455L1227.41 932.349Z" fill="#C0EEF2"/>
<rect x="69.3838" y="100.622" width="29.5891" height="44.6938" stroke="#181823" stroke-width="3"/>
<path d="M1030.82 122.461C1030.82 130.034 1024.65 136.183 1017.04 136.183C1009.43 136.183 1003.26 130.034 1003.26 122.461C1003.26 114.888 1009.43 108.74 1017.04 108.74C1024.65 108.74 1030.82 114.888 1030.82 122.461Z" stroke="#181823" stroke-width="3"/>
<path d="M240.532 691.742C240.532 699.315 234.369 705.464 226.756 705.464C219.142 705.464 212.979 699.315 212.979 691.742C212.979 684.169 219.142 678.021 226.756 678.021C234.369 678.021 240.532 684.169 240.532 691.742Z" stroke="#181823" stroke-width="3"/>
<path d="M1395.41 362.452C1395.41 378.152 1382.63 390.888 1366.87 390.888C1351.1 390.888 1338.32 378.152 1338.32 362.452C1338.32 346.753 1351.1 334.017 1366.87 334.017C1382.63 334.017 1395.41 346.753 1395.41 362.452Z" stroke="#181823" stroke-width="3"/>
<path d="M772.141 644.048C772.141 659.468 759.595 671.977 744.107 671.977C728.619 671.977 716.073 659.468 716.073 644.048C716.073 628.629 728.619 616.12 744.107 616.12C759.595 616.12 772.141 628.629 772.141 644.048Z" stroke="#181823" stroke-width="3"/>
<path d="M671.319 214.297C671.319 227.194 660.825 237.659 647.868 237.659C634.911 237.659 624.417 227.194 624.417 214.297C624.417 201.4 634.911 190.936 647.868 190.936C660.825 190.936 671.319 201.4 671.319 214.297Z" stroke="#C0EEF2" stroke-width="3"/>
<rect x="304.637" y="73.2233" width="47.9205" height="47.738" stroke="#181823" stroke-width="3"/>
<rect x="1069.46" y="428.39" width="47.9205" height="47.738" stroke="#181823" stroke-width="3"/>
<rect x="476.747" y="793.704" width="25.5155" height="25.4133" stroke="#C0EEF2" stroke-width="3"/>
<ellipse cx="578.616" cy="461.899" rx="35.1351" ry="35.0093" fill="#C0EEF2"/>
<ellipse cx="761.42" cy="662.314" rx="23.4234" ry="23.3395" fill="#C0EEF2"/>
<ellipse cx="1150.96" cy="266.05" rx="15.7853" ry="15.7288" fill="#C0EEF2"/>
<ellipse cx="369.842" cy="487.268" rx="9.67489" ry="9.64023" fill="#C0EEF2"/>
<ellipse cx="578.616" cy="934.778" rx="9.67489" ry="9.64023" fill="#C0EEF2"/>
<ellipse cx="1346.5" cy="557.286" rx="9.67489" ry="9.64023" fill="#C0EEF2"/>
<rect x="128.988" y="321.354" width="22.405" height="22.3247" fill="#C0EEF2"/>
<rect x="45.4785" y="426.89" width="22.405" height="22.3247" fill="#C0EEF2"/>
<rect x="379.517" y="500.967" width="22.405" height="22.3247" fill="#C0EEF2"/>
<rect x="1347.01" y="132.609" width="22.405" height="22.3247" fill="#C0EEF2"/>
<rect x="600.512" y="902.812" width="22.405" height="22.3247" fill="#C0EEF2"/>
<rect x="467.101" y="837.868" width="22.405" height="22.3247" fill="#C0EEF2"/>
<path d="M690.131 171.17L705.125 197.046H675.138L690.131 171.17Z" fill="#C0EEF2"/>
<path d="M679.948 64.62L709.935 90.4964H649.961L679.948 64.62Z" fill="#C0EEF2"/>
<path d="M322.219 136.682L349.632 148.793L325.399 166.393L322.219 136.682Z" fill="#C0EEF2"/>
<path d="M1029.95 411.354L1050.8 389.877L1059.04 418.606L1029.95 411.354Z" fill="#C0EEF2"/>
<path d="M1177.15 807.315L1205.23 817.801L1182.08 836.789L1177.15 807.315Z" fill="#C0EEF2"/>
<path d="M1094.44 909.398L1124.28 906.447L1111.93 933.672L1094.44 909.398Z" fill="#C0EEF2"/>
<rect x="869.854" y="322.854" width="15.3314" height="45.7085" stroke="#181823" stroke-width="3"/>
<rect x="604.049" y="210.26" width="37.5904" height="37.7364" transform="rotate(-90 604.049 210.26)" stroke="#181823" stroke-width="3"/>
<rect x="575.533" y="237.659" width="19.3247" height="19.405" transform="rotate(-90 575.533 237.659)" stroke="#181823" stroke-width="3"/>
<rect x="1338.32" y="166.626" width="19.3247" height="19.405" transform="rotate(-90 1338.32 166.626)" stroke="#181823" stroke-width="3"/>
<rect x="1225.28" y="353.342" width="14.2509" height="50.9757" transform="rotate(-90 1225.28 353.342)" stroke="#181823" stroke-width="3"/>
<rect x="285.286" y="426.404" width="14.2509" height="41.81" transform="rotate(-90 285.286 426.404)" stroke="#181823" stroke-width="3"/>
<path d="M307.21 404.565L329.259 442.618H285.161L307.21 404.565Z" fill="#C0EEF2"/>
<path d="M1023.69 646.078C1023.69 650.288 1020.26 653.711 1016.02 653.711C1011.78 653.711 1008.36 650.288 1008.36 646.078C1008.36 641.868 1011.78 638.445 1016.02 638.445C1020.26 638.445 1023.69 641.868 1023.69 646.078Z" stroke="#C0EEF2" stroke-width="3"/>
<path d="M1022.67 676.521C1022.67 685.215 1015.6 692.272 1006.86 692.272C998.119 692.272 991.044 685.215 991.044 676.521C991.044 667.827 998.119 660.77 1006.86 660.77C1015.6 660.77 1022.67 667.827 1022.67 676.521Z" stroke="#C0EEF2" stroke-width="3"/>
<path d="M1400.5 949.492C1400.5 958.185 1393.43 965.242 1384.69 965.242C1375.95 965.242 1368.87 958.185 1368.87 949.492C1368.87 940.798 1375.95 933.741 1384.69 933.741C1393.43 933.741 1400.5 940.798 1400.5 949.492Z" stroke="#C0EEF2" stroke-width="3"/>
<path d="M560.312 662.314C560.312 667.645 555.973 671.977 550.61 671.977C545.246 671.977 540.907 667.645 540.907 662.314C540.907 656.983 545.246 652.652 550.61 652.652C555.973 652.652 560.312 656.983 560.312 662.314Z" stroke="#C0EEF2" stroke-width="3"/>
<ellipse cx="318.412" cy="831.779" rx="11.2025" ry="11.1624" fill="#C0EEF2"/>
<ellipse cx="501.217" cy="147.323" rx="7.63807" ry="7.61071" fill="#C0EEF2"/>
<ellipse cx="204.86" cy="219.371" rx="7.63807" ry="7.61071" fill="#C0EEF2"/>
<ellipse cx="1389.27" cy="68.1716" rx="7.63807" ry="7.61071" fill="#C0EEF2"/>
<ellipse cx="1054.21" cy="370.57" rx="7.63807" ry="7.61071" fill="#C0EEF2"/>
<ellipse cx="863.771" cy="483.209" rx="7.63807" ry="7.61071" fill="#C0EEF2"/>
<path d="M137.673 580.119C137.673 585.45 133.334 589.781 127.97 589.781C122.606 589.781 118.268 585.45 118.268 580.119C118.268 574.787 122.606 570.456 127.97 570.456C133.334 570.456 137.673 574.787 137.673 580.119Z" stroke="#C0EEF2" stroke-width="3"/>
<path d="M847.504 134.638C847.504 139.97 843.165 144.301 837.801 144.301C832.438 144.301 828.099 139.97 828.099 134.638C828.099 129.307 832.438 124.976 837.801 124.976C843.165 124.976 847.504 129.307 847.504 134.638Z" stroke="#C0EEF2" stroke-width="3"/>
<path d="M380.987 672.781L404.947 666.476L398.447 690.305L380.987 672.781Z" stroke="#181823" stroke-width="3"/>
<path d="M394.644 268.341L435.283 277.06L443.741 317.616L394.644 268.341Z" stroke="#181823" stroke-width="3"/>
<path d="M483.728 949.943L477.567 975.561L455.085 961.7L483.728 949.943Z" stroke="#181823" stroke-width="3"/>
<path d="M952.81 774.758L940.617 795.329L917.42 789.285L952.81 774.758Z" stroke="#181823" stroke-width="3"/>
<path d="M1033.28 233.336L1036.35 255.123L1023.12 237.506L1033.28 233.336Z" stroke="#181823" stroke-width="3"/>
<path d="M696.545 83.6422L665.816 93.76L661.94 61.7446L696.545 83.6422Z" stroke="#181823" stroke-width="3"/>
<path d="M123.222 788.999L91.9761 798.781L80.3158 768.285L123.222 788.999Z" stroke="#181823" stroke-width="3"/>
<rect x="871.408" y="454.288" width="20.3682" height="20.2952" fill="#C0EEF2"/>
<rect x="687.076" y="761.761" width="20.3682" height="20.2952" fill="#C0EEF2"/>
<rect x="714.573" y="788.145" width="15.2761" height="15.2214" fill="#C0EEF2"/>
<rect x="862.243" y="337.591" width="15.2761" height="15.2214" fill="#C0EEF2"/>
<rect x="699.298" y="298.015" width="15.2761" height="15.2214" fill="#C0EEF2"/>
<rect x="936.587" y="944.418" width="20.3682" height="20.2952" fill="#C0EEF2"/>
<path d="M841.596 123.849C941.596 155.849 1101.6 284.849 1144.6 284.849C1237.6 298.849 1315.4 253.649 1390.6 240.849C1465.8 228.049 1539.26 320.849 1566.6 368.849C1557.26 540.849 1505.8 868.249 1190.6 821.849C928.596 783.281 900.47 681.067 843.596 631.849C791.596 586.849 707.533 590.849 660.596 499.849C621.43 423.915 675.596 387.849 667.596 329.849C659.596 271.849 623.18 230.351 660.596 166.849C699.921 100.106 778.62 103.697 841.596 123.849Z" fill="#C0EEF2"/>
<path d="M1331.77 346.745C1333.55 342.712 1339.29 342.781 1340.97 346.856L1346.8 361.017C1347.48 362.669 1348.99 363.833 1350.76 364.069L1366.99 366.235C1371.27 366.805 1372.86 372.15 1369.61 374.971L1357.6 385.362C1356.23 386.555 1355.61 388.405 1355.99 390.187L1359.71 407.581C1360.63 411.882 1355.95 415.189 1352.2 412.887L1339.12 404.848C1337.51 403.862 1335.49 403.862 1333.88 404.848L1321.13 412.682C1317.34 415.014 1312.62 411.594 1313.65 407.261L1317.7 390.306C1318.14 388.462 1317.5 386.528 1316.04 385.311L1303.67 374.957C1300.34 372.172 1301.9 366.758 1306.2 366.169L1321.54 364.067C1323.26 363.831 1324.74 362.718 1325.44 361.127L1331.77 346.745Z" fill="white"/>
<path d="M1331.73 350.327C1332.63 347.97 1335.86 347.707 1337.13 349.888L1343.89 361.519C1345.11 363.622 1347.34 364.939 1349.77 364.998L1364.51 365.358C1367.2 365.423 1368.45 368.714 1366.49 370.549L1357.27 379.168C1355.25 381.05 1354.53 383.938 1355.42 386.546L1359.97 399.838C1360.81 402.3 1358.33 404.594 1355.94 403.563L1342.43 397.736C1340.24 396.79 1337.71 397.028 1335.74 398.368L1323.9 406.388C1321.71 407.869 1318.82 406.008 1319.26 403.405L1321.53 389.922C1322.01 387.098 1320.72 384.268 1318.27 382.778L1307.3 376.095C1304.99 374.687 1305.58 371.181 1308.22 370.602L1321.74 367.64C1324.05 367.135 1325.94 365.502 1326.78 363.296L1331.73 350.327Z" stroke="black" stroke-width="4"/>
<circle cx="1285" cy="406" r="9" fill="white"/>
<circle cx="1354.5" cy="331.5" r="4.5" fill="white"/>
<circle cx="820.5" cy="336.5" r="42.5" fill="white"/>
<path d="M851 331.5C851 351.009 834.31 367 813.5 367C792.69 367 776 351.009 776 331.5C776 311.991 792.69 296 813.5 296C834.31 296 851 311.991 851 331.5Z" stroke="black" stroke-width="4"/>
<path d="M842 310C840.92 308.2 836.633 308.48 834.944 308.5C829.902 308.56 824.481 309.448 821.528 313.944C818.946 317.876 817.95 321.923 818.361 326.583C818.784 331.376 821.144 335.428 821.778 340.111C822.849 348.027 820.035 353.288 813.778 357.944C811.593 359.571 809.239 360.917 807.139 362.667C806.305 363.362 806.078 364 805 364" stroke="black" stroke-width="3" stroke-linecap="round"/>
<path d="M798.5 299C799.727 304.914 803.73 308.509 803.778 315C803.83 322.041 803.027 330.742 796.944 335.333C793.465 337.96 788.389 340.167 784.056 340.889C781.061 341.388 779.12 339.452 776.5 340.5" stroke="black" stroke-width="3" stroke-linecap="round"/>
<path d="M785 306.5C780.883 308.558 777.373 310.888 775.111 314.889C772.782 319.01 774 325.874 774 330.5" stroke="black" stroke-width="3" stroke-linecap="round"/>
<path d="M777.5 315C777.431 314.977 774.846 319.268 777.028 315.5C778.275 313.346 778.674 312.631 777.5 315.333C777.207 316.009 776 320.776 776 318C776 317.113 775.937 316.492 775.75 318.028C775.575 319.464 775.5 323.808 775.5 322.361C775.5 321.598 775.864 316.416 775.278 318.833C774.198 323.288 775.441 318.229 776.25 316.611C776.935 315.241 778.152 312.987 779.5 312.111C780.262 311.616 781.106 311.288 781.5 310.5" stroke="black" stroke-width="3" stroke-linecap="round"/>
<path d="M774 327C774.03 329.271 773.817 331.528 775 333.5" stroke="black" stroke-width="3" stroke-linecap="round"/>
<path d="M774 330.5C774.599 332.478 775.021 334.49 775.5 336.5" stroke="black" stroke-width="3" stroke-linecap="round"/>
<path d="M784.5 306.5C785.267 306.074 785.832 305.556 786.5 305" stroke="black" stroke-width="3" stroke-linecap="round"/>
<path d="M784 307C785.563 305.906 787.011 304.691 788.5 303.5" stroke="black" stroke-width="3" stroke-linecap="round"/>
<path d="M848 322.5C850.063 335.654 845.079 349.181 835 358" stroke="black" stroke-width="3" stroke-linecap="round"/>
<path d="M846.5 318C847.242 319.659 847.563 321.251 848 323" stroke="black" stroke-width="3" stroke-linecap="round"/>
<path d="M847.5 319.5C845.256 315.276 842.429 312.567 838 310.5" stroke="black" stroke-width="3" stroke-linecap="round"/>
<path d="M833 309C835.02 309.144 837.008 309.668 839 310" stroke="black" stroke-width="3" stroke-linecap="round"/>
<circle cx="729" cy="511" r="31" fill="white"/>
<path d="M820 352C819.343 354.215 819.148 356.777 821.055 358.472C825.765 362.659 831.978 359.177 836.5 357" stroke="black" stroke-width="3" stroke-linecap="round"/>
<path d="M799.5 362.5H807" stroke="black" stroke-width="3" stroke-linecap="round"/>
<path d="M808.5 364C810.854 363.059 813.275 362.113 815.5 361" stroke="black" stroke-width="3" stroke-linecap="round"/>
<path d="M796.999 363C794.039 361.97 801.252 362.603 802.222 362.444C807.006 361.66 811.473 360.197 815.999 358.5" stroke="black" stroke-width="3" stroke-linecap="round"/>
<path d="M826.5 363C821.625 362.713 815.754 362.01 811.056 363.889C808.619 364.864 816.516 363.917 817.333 363.75C821.531 362.891 819.132 363.714 816.833 362.889C815.18 362.295 814.515 358.456 816.111 358.722C816.568 358.798 818.915 361.44 818.5 360.556C818.268 360.06 817.646 358.541 817.833 359.056C818 359.513 818.705 361.116 818.667 361.056C818.106 360.174 817.751 359.148 817.333 358.194C817.095 357.65 818.166 359.274 818.556 359.444C818.653 359.487 818.177 358.098 818.111 357.944C817.707 357.001 819.258 359.654 819.945 360.417C821.273 361.892 821.476 361.056 819.722 361.056C816.618 361.056 817.935 361.926 818 359.111C818.134 353.34 813.67 359.308 817.583 361.917C819.308 363.066 822.16 362.217 824.028 361.75C825.082 361.486 828.046 360.732 827.278 361.5C825.884 362.894 822.178 362.686 820.389 363.722C819.664 364.142 819.86 364.472 820.695 364.417C822.973 364.265 824.602 363.084 826.5 362" stroke="black" stroke-width="3" stroke-linecap="round"/>
<path d="M810 339C809.126 340.615 803.902 356.207 808.611 353.444C813.08 350.823 815.427 339.476 809.5 337.5" stroke="black" stroke-width="3" stroke-linecap="round"/>
<path d="M808.5 297.5C808.848 300.984 811.82 304.679 815.611 303.278C820.134 301.606 823.686 300.602 828.5 300" stroke="black" stroke-width="3" stroke-linecap="round"/>
<path d="M1018 314.5C1018 320.851 1011.51 326 1003.5 326C995.492 326 989 320.851 989 314.5C989 308.149 995.492 303 1003.5 303C1011.51 303 1018 308.149 1018 314.5Z" fill="white"/>
<path d="M1018 314.5C1018 320.851 1011.51 326 1003.5 326C995.492 326 989 320.851 989 314.5C989 308.149 995.492 303 1003.5 303C1011.51 303 1018 308.149 1018 314.5Z" fill="white"/>
<path d="M991 337.5C991 341.642 987.642 345 983.5 345C979.358 345 976 341.642 976 337.5C976 333.358 979.358 330 983.5 330C987.642 330 991 333.358 991 337.5Z" fill="white"/>
<path d="M991 337.5C991 341.642 987.642 345 983.5 345C979.358 345 976 341.642 976 337.5C976 333.358 979.358 330 983.5 330C987.642 330 991 333.358 991 337.5Z" fill="white"/>
<path d="M784 279C784 285.627 778.627 291 772 291C765.373 291 760 285.627 760 279C760 272.373 765.373 267 772 267C778.627 267 784 272.373 784 279Z" fill="white"/>
<path d="M784 279C784 285.627 778.627 291 772 291C765.373 291 760 285.627 760 279C760 272.373 765.373 267 772 267C778.627 267 784 272.373 784 279Z" fill="white"/>
<circle cx="876" cy="500" r="5" fill="white"/>
<circle cx="1353" cy="664" r="59" fill="white"/>
<ellipse cx="1302" cy="763.5" rx="26" ry="22.5" fill="white"/>
<ellipse cx="1393" cy="576" rx="9" ry="10" fill="white"/>
<ellipse cx="1018.5" cy="685.5" rx="9.5" ry="10.5" fill="white"/>
<ellipse cx="1065.5" cy="668" rx="22.5" ry="22" fill="white"/>
<circle cx="1326" cy="166" r="41" fill="#C0EEF2"/>
<circle cx="1089" cy="222" r="15" fill="#C0EEF2"/>
<circle cx="829.5" cy="711.5" r="15.5" fill="#C0EEF2"/>
<circle cx="808.5" cy="655.5" r="26.5" fill="#C0EEF2"/>
<circle cx="1116.5" cy="842.5" r="23.5" fill="#C0EEF2"/>
<path d="M1069.25 777.492L1175.09 773.617L1139.73 873.449L1069.25 777.492Z" stroke="#181823" stroke-width="3"/>
<circle cx="997.5" cy="165.5" r="14" stroke="#C0EEF2" stroke-width="3"/>
<rect x="944.5" y="133.5" width="51" height="110" stroke="#181823" stroke-width="3"/>
<path d="M928 419C926.908 421.261 916.8 432.5 911.777 438.806C910.084 440.931 908.767 443.246 907.277 445.5C904.824 449.212 902.821 453.019 900.75 456.944C899.962 458.437 895.562 470.05 898.305 470.472C901.741 471.001 904.18 467.79 906.75 466.028C911.091 463.05 915.533 460.91 920.277 458.611C927.446 455.137 934.92 452.802 942.833 451.778C946.749 451.271 950.772 450.733 954.722 450.611C963.376 450.343 970.859 452.606 979 455" stroke="white" stroke-width="10" stroke-linecap="round"/>
<path d="M1060.5 313C1055.43 319.944 1041.5 334.651 1030.33 343.445C1021.76 350.192 1006.26 357.121 996.499 362" stroke="white" stroke-width="10" stroke-linecap="round"/>
<path d="M1051.5 553.5C1049.3 565.671 1047.86 578.383 1043.55 590.056C1041.51 595.605 1038.75 600.792 1036 606" stroke="white" stroke-width="10" stroke-linecap="round"/>
<path d="M1109.25 577C1107.73 572.682 1105.44 568.57 1103.17 564.611C1101.72 562.088 1100.13 559.881 1097.93 557.986C1092.83 553.592 1085.58 550.673 1079.05 549.5C1072.16 548.26 1063.99 550.151 1058.46 554.542C1049.31 561.802 1044.57 572.771 1039.75 583" stroke="white" stroke-width="20" stroke-linecap="square"/>
<path d="M997.999 638C1008.41 627.09 1018.07 616.128 1027 604" stroke="white" stroke-width="10" stroke-linecap="round"/>
<path d="M997.499 616.5C992.388 622.634 989.462 630.184 983.305 635.583C978.792 639.541 972.404 641.732 966.999 644.194C960.598 647.11 953.671 648.42 946.777 649.611C938.002 651.127 929.255 651.055 920.388 651.444C910.719 651.869 901.917 653.665 892.499 655.5" stroke="white" stroke-width="10" stroke-linecap="round"/>
<path d="M1074 540.5C1080.68 541.207 1084.86 542.299 1090.11 546.389C1094.94 550.153 1100.18 554.593 1102.39 560.5C1104.24 565.462 1104.74 570.885 1105.39 576.111C1107 589.228 1105.73 593.634 1102.39 606" stroke="white" stroke-width="10"/>
<path d="M1191.5 423C1190.39 426.711 1183.84 444.503 1182.33 448.056C1180.91 451.416 1180.66 451.926 1180 458.75C1179.33 465.574 1176.01 484.812 1174.5 491.5" stroke="white" stroke-width="10" stroke-linecap="round"/>
<path d="M1082 536.5C1086.21 537.411 1089.73 539.545 1093 542" stroke="white" stroke-width="10" stroke-linecap="round"/>
<path d="M1024.64 598.41L1032.2 616.415C1032.2 616.415 1045.36 585.908 1046.62 566.267C1047.23 556.715 1047.89 551.092 1045.52 542.111C1043.99 536.313 1039.59 527.998 1039.59 527.998C1032.84 511.939 1032.44 496.076 973.024 500.431C913.611 504.785 897.267 554.215 896.521 578.386C904.973 557.428 916.365 554.396 921.005 555.5C931.078 562.91 941.503 586.394 902.621 621.056C863.739 655.718 867.506 685.436 874.249 695.962C872.427 682.795 881.008 654.416 929.905 646.235C978.802 638.055 1001.8 610.868 1007.19 598.297L993.137 646.001L1024.64 598.41Z" fill="white" stroke="black" stroke-width="5" stroke-linejoin="round"/>
<path d="M963.472 485.862C958.759 472.943 970.021 467.963 976.241 467.089C977.399 463.45 978.704 459.629 980.158 455.651C971.668 448.76 945.449 439.81 908.487 459.14C918.442 427.871 957.819 362.856 1035.68 352.943C1083.96 286.323 1159.41 220.969 1264.7 208.678C1282.78 309.662 1233.48 397.212 1175.58 459.256C1193.51 542.855 1130.73 597.755 1097.1 614.755C1120 578.526 1099.98 545.352 1087.1 533.294C1082.85 535.997 1078.75 538.48 1074.83 540.736C1073.77 554.167 1062.65 557.035 1057.22 556.789L963.472 485.862Z" fill="white"/>
<path d="M976.241 467.089L1074.83 540.736M976.241 467.089C970.021 467.963 958.759 472.943 963.472 485.862L1057.22 556.789C1062.65 557.035 1073.77 554.167 1074.83 540.736M976.241 467.089C977.399 463.45 978.704 459.629 980.158 455.651M1074.83 540.736C1078.75 538.48 1082.85 535.997 1087.1 533.294M1087.1 533.294C1099.98 545.352 1120 578.526 1097.1 614.755C1130.73 597.755 1193.51 542.855 1175.58 459.256M1087.1 533.294C1113.5 516.521 1145.68 491.288 1175.58 459.256M1175.58 459.256C1233.48 397.212 1282.78 309.662 1264.7 208.678C1159.41 220.969 1083.96 286.323 1035.68 352.943M980.158 455.651C971.668 448.76 945.449 439.81 908.487 459.14C918.442 427.871 957.819 362.856 1035.68 352.943M980.158 455.651C990.694 426.826 1009.05 389.692 1035.68 352.943" stroke="white" stroke-width="5"/>
<path d="M961.785 486.222C956.667 473.457 967.767 468.125 973.957 467.055C974.999 463.381 976.183 459.521 977.511 455.499C968.808 448.879 942.32 440.76 905.985 461.245C914.95 429.679 952.258 363.455 1029.77 351.092C1075.92 282.984 1149.28 215.284 1254.13 199.68C1275.38 300.044 1228.87 389.105 1172.95 452.943C1193.5 535.936 1132.49 592.787 1099.41 610.838C1121.16 573.906 1100.1 541.38 1086.85 529.733C1082.68 532.568 1078.66 535.179 1074.82 537.558C1074.19 551.016 1063.15 554.233 1057.72 554.159L961.785 486.222Z" fill="white"/>
<path d="M973.957 467.055L1074.82 537.558M973.957 467.055C967.767 468.125 956.667 473.457 961.785 486.222L1057.72 554.159C1063.15 554.233 1074.19 551.016 1074.82 537.558M973.957 467.055C974.999 463.381 976.183 459.521 977.511 455.499M1074.82 537.558C1078.66 535.179 1082.68 532.568 1086.85 529.733M1086.85 529.733C1100.1 541.38 1121.16 573.906 1099.41 610.838C1132.49 592.787 1193.5 535.936 1172.95 452.943M1086.85 529.733C1112.7 512.136 1144.08 485.901 1172.95 452.943M1172.95 452.943C1228.87 389.105 1275.38 300.044 1254.13 199.68C1149.28 215.284 1075.92 282.984 1029.77 351.092M977.511 455.499C968.808 448.879 942.32 440.76 905.985 461.245C914.95 429.679 952.258 363.455 1029.77 351.092M977.511 455.499C987.133 426.357 1004.31 388.662 1029.77 351.092" stroke="black" stroke-width="5"/>
<path d="M1040 513L1062 528L1148.58 451.912C1122.38 473.846 1077.49 505.569 1040 513Z" fill="black"/>
<path d="M1148.58 451.912L1062 528L1040 513C1077.49 505.569 1122.38 473.846 1148.58 451.912ZM1148.58 451.912C1153.41 447.871 1157.6 444.163 1161 441L1148.58 451.912Z" stroke="black" stroke-width="3" stroke-linecap="round" stroke-linejoin="round"/>
<circle cx="1128" cy="369" r="53" stroke="black" stroke-width="4"/>
<path d="M972 468.5C964.853 473.757 965.63 483.555 970.71 491.279C978.042 497.081 983.657 502.993 977 498C974.523 496.142 972.383 493.823 970.71 491.279C968.031 489.159 965.122 487.054 962.5 485.5L961 475.488L972 468.5Z" fill="black" stroke="black" stroke-width="3" stroke-linecap="round" stroke-linejoin="round"/>
<path d="M975.5 459.5C974.333 462.833 970.9 469.5 966.5 469.5" stroke="black" stroke-width="3" stroke-linecap="round" stroke-linejoin="round"/>
<path d="M983.888 472.952C980.938 469.556 978.573 451.318 984.5 436.5C988.5 426.5 977.167 451.667 975 465L983.888 472.952Z" fill="black"/>
<path d="M983.888 472.952C980.938 469.556 978.573 451.318 984.5 436.5C988.5 426.5 977.167 451.667 975 465L983.888 472.952ZM983.888 472.952L984.5 473.5C992 479 986.838 476.348 983.888 472.952Z" stroke="black" stroke-width="3" stroke-linecap="round" stroke-linejoin="round"/>
<circle cx="1127.5" cy="368.5" r="44.5" stroke="black" stroke-width="4"/>
<path d="M1157.5 471C1158.76 469.546 1160.4 467.998 1162.22 466.869L1173.5 457C1176.5 468 1180.3 487.1 1175.5 473.5C1172.1 463.856 1166.65 464.118 1162.22 466.869L1157.5 471Z" fill="black" stroke="black" stroke-width="2" stroke-linecap="round" stroke-linejoin="round"/>
<path d="M1104.5 518C1094.1 525.6 1098.17 540.667 1101.5 546.5L1087.5 529C1097.5 522.167 1114.9 510.4 1104.5 518Z" fill="black" stroke="black" stroke-width="2" stroke-linecap="round" stroke-linejoin="round"/>
<path d="M1043 332L1029 351L1008.03 355.878C1007.84 355.926 1007.67 355.967 1007.5 356L1008.03 355.878C1014.38 354.218 1032.12 343.659 1043 332Z" fill="black" stroke="black" stroke-width="2" stroke-linecap="round" stroke-linejoin="round"/>
<path d="M950 447C973.2 444.2 987.667 424.5 992 415L976.5 455.5L969 451.5L955 447C943.667 448.167 926.8 449.8 950 447Z" fill="black" stroke="black" stroke-width="2" stroke-linecap="round" stroke-linejoin="round"/>
<path d="M1151 476.5L1146.5 481.5C1152.74 487.725 1158.24 508.533 1153.72 526.622C1161.3 500.439 1156.11 483.152 1151 476.5Z" fill="black"/>
<path d="M1137.5 562.5C1144.57 550.778 1149.39 540.085 1152.53 530.5M1152.53 530.5C1153.01 529.2 1153.4 527.907 1153.72 526.622M1152.53 530.5C1152.96 529.187 1153.36 527.894 1153.72 526.622M1153.72 526.622C1158.24 508.533 1152.74 487.725 1146.5 481.5L1151 476.5C1156.11 483.152 1161.3 500.439 1153.72 526.622Z" stroke="black" stroke-width="3" stroke-linecap="round" stroke-linejoin="round"/>
<path d="M1018 367.5C1011.15 368.511 996.357 373.157 978.5 384.043C1003.7 373.677 1009.67 378.362 1009.5 382L1018 367.5Z" fill="black"/>
<path d="M951 404.5C960.517 396.026 969.867 389.305 978.5 384.043M978.5 384.043C996.357 373.157 1011.15 368.511 1018 367.5L1009.5 382C1009.67 378.362 1003.7 373.677 978.5 384.043Z" stroke="black" stroke-width="3" stroke-linecap="round" stroke-linejoin="round"/>
<path d="M959.5 481.5C961.295 485.356 963.196 499.202 954.972 502.727C946.748 506.252 966.231 501.626 977 498.872L959.5 481.5Z" fill="black" stroke="black" stroke-width="3" stroke-linecap="round" stroke-linejoin="round"/>
<path d="M969.5 451.5C971.667 453 975.7 457 974.5 461" stroke="black" stroke-width="3" stroke-linecap="round" stroke-linejoin="round"/>
<path d="M1025 532C1028.67 546.167 1025.8 578.7 985 595.5C1002.17 585 1032.2 556.3 1015 525.5L1025 532Z" fill="black" stroke="black" stroke-width="3" stroke-linecap="round" stroke-linejoin="round"/>
<path d="M999 514C990 511.333 968.2 509.3 953 522.5" stroke="black" stroke-width="3" stroke-linecap="round" stroke-linejoin="round"/>
<path d="M909.5 558L938.5 534C937 537 930.5 554.8 930.5 574L926.5 560.5L924 554L909.5 558Z" fill="black" stroke="black" stroke-width="3" stroke-linecap="round" stroke-linejoin="round"/>
<path d="M1229 222C1140.2 243.6 1093.33 289.667 1081 310C1141 248.4 1204.67 233.667 1229 234V222Z" fill="black" stroke="black" stroke-width="3" stroke-linecap="round" stroke-linejoin="round"/>
</g>
<defs>
<clipPath id="clip0_434_54">
<rect width="1440" height="1024" fill="white"/>
</clipPath>
</defs>
</svg>
