<svg width="24" height="24" viewBox="0 0 24 24" fill="none" xmlns="http://www.w3.org/2000/svg">
<path d="M17 16C16.1667 16 15.4583 15.7083 14.875 15.125C14.2917 14.5417 14 13.8333 14 13C14 12.1667 14.2917 11.4583 14.875 10.875C15.4583 10.2917 16.1667 10 17 10C17.8333 10 18.5417 10.2917 19.125 10.875C19.7083 11.4583 20 12.1667 20 13C20 13.8333 19.7083 14.5417 19.125 15.125C18.5417 15.7083 17.8333 16 17 16ZM17 14C17.2833 14 17.521 13.904 17.713 13.712C17.905 13.52 18.0007 13.2827 18 13C18 12.7167 17.904 12.479 17.712 12.287C17.52 12.095 17.2827 11.9993 17 12C16.7167 12 16.479 12.096 16.287 12.288C16.095 12.48 15.9993 12.7173 16 13C16 13.2833 16.096 13.521 16.288 13.713C16.48 13.905 16.7173 14.0007 17 14ZM12 23C11.7167 23 11.479 22.904 11.287 22.712C11.095 22.52 10.9993 22.2827 11 22V20.1C11 19.75 11.0833 19.4207 11.25 19.112C11.4167 18.8033 11.65 18.5577 11.95 18.375C12.4833 18.0583 12.9333 17.8373 13.3 17.712C13.6667 17.5867 14.1583 17.4743 14.775 17.375C14.975 17.3417 15.175 17.346 15.375 17.388C15.575 17.43 15.7417 17.5257 15.875 17.675L17 19L18.1 17.675C18.2333 17.5083 18.4 17.4083 18.6 17.375C18.8 17.3417 19 17.3417 19.2 17.375C19.8167 17.475 20.3083 17.5877 20.675 17.713C21.0417 17.8383 21.4917 18.059 22.025 18.375C22.325 18.5583 22.5627 18.8043 22.738 19.113C22.9133 19.4217 23.0007 19.7507 23 20.1V22C23 22.2833 22.904 22.521 22.712 22.713C22.52 22.905 22.2827 23.0007 22 23H12ZM12.975 21H16.05L14.7 19.35C14.4 19.4333 14.1083 19.5417 13.825 19.675C13.5417 19.8083 13.2583 19.95 12.975 20.1V21ZM17.95 21H21V20.1C20.7333 19.9333 20.4583 19.7873 20.175 19.662C19.8917 19.5367 19.6 19.4327 19.3 19.35L17.95 21ZM5 19V5V8.425V8V19ZM5 21C4.45 21 3.979 20.804 3.587 20.412C3.195 20.02 2.99934 19.5493 3 19V5C3 4.45 3.196 3.979 3.588 3.587C3.98 3.195 4.45067 2.99934 5 3H19C19.55 3 20.021 3.196 20.413 3.588C20.805 3.98 21.0007 4.45067 21 5V10C20.7333 9.66667 20.4417 9.35 20.125 9.05C19.8083 8.75 19.4333 8.55 19 8.45V5H5V19H9.15C9.1 19.1833 9.06234 19.3667 9.037 19.55C9.01167 19.7333 8.99934 19.9167 9 20.1V21H5ZM8 9H14C14.4333 8.66667 14.9083 8.41667 15.425 8.25C15.9417 8.08334 16.4667 8 17 8C17 7.71667 16.904 7.479 16.712 7.287C16.52 7.095 16.2827 6.99934 16 7H8C7.71667 7 7.479 7.096 7.287 7.288C7.095 7.48 6.99934 7.71734 7 8C7 8.28334 7.096 8.521 7.288 8.713C7.48 8.905 7.71734 9.00067 8 9ZM8 13H12C12 12.65 12.0377 12.3083 12.113 11.975C12.1883 11.6417 12.2923 11.3167 12.425 11H8C7.71667 11 7.479 11.096 7.287 11.288C7.095 11.48 6.99934 11.7173 7 12C7 12.2833 7.096 12.521 7.288 12.713C7.48 12.905 7.71734 13.0007 8 13ZM8 17H10.45C10.6333 16.85 10.8293 16.7167 11.038 16.6C11.2467 16.4833 11.459 16.375 11.675 16.275V16C11.675 15.7333 11.604 15.5 11.462 15.3C11.32 15.1 11.0577 15 10.675 15H8C7.71667 15 7.479 15.096 7.287 15.288C7.095 15.48 6.99934 15.7173 7 16C7 16.2833 7.096 16.521 7.288 16.713C7.48 16.905 7.71734 17.0007 8 17Z" fill="black"/>
</svg>
