<svg width="47" height="47" viewBox="0 0 47 47" fill="none" xmlns="http://www.w3.org/2000/svg">
<path d="M23.5006 23.4999C29.5264 23.4999 34.4113 18.615 34.4113 12.5892C34.4113 6.56336 29.5264 1.67847 23.5006 1.67847C17.4747 1.67847 12.5898 6.56336 12.5898 12.5892C12.5898 18.615 17.4747 23.4999 23.5006 23.4999Z" fill="#537FE7" stroke="#537FE7" stroke-linecap="round" stroke-linejoin="round"/>
<path d="M41.5055 45.0435C42.861 45.0435 43.8208 43.7207 43.2481 42.4921C41.6985 39.1676 39.3276 36.2737 36.3404 34.0946C32.6117 31.3746 28.1155 29.9089 23.5001 29.9089C18.8847 29.9089 14.3885 31.3746 10.6597 34.0946C7.67257 36.2737 5.30159 39.1676 3.75201 42.4921C3.17935 43.7207 4.13911 45.0435 5.49463 45.0435H41.5055Z" fill="#537FE7" stroke="#537FE7" stroke-linecap="round" stroke-linejoin="round"/>
</svg>
