<svg width="1440" height="1024" viewBox="0 0 1440 1024" fill="none" xmlns="http://www.w3.org/2000/svg">
<g clip-path="url(#clip0_233_3)">
<rect width="1440" height="1024" fill="white"/>
<path d="M280.597 593.118L362.29 642.089L314.492 682.13L280.597 593.118Z" fill="#C0EEF2"/>
<path d="M58.9249 832.281L-39.0269 868.133L-20.2452 764.369L58.9249 832.281Z" fill="#C0EEF2"/>
<path d="M940.438 617.965L952.931 513.567L1045.13 627.693L940.438 617.965Z" fill="#C0EEF2"/>
<path d="M852.528 226.463L785.276 221.523L848.118 159.175L852.528 226.463Z" fill="#C0EEF2"/>
<path d="M39.4889 872.225L23.729 771.458L116.468 805.318L39.4889 872.225Z" stroke="#181823" stroke-width="3"/>
<path d="M997.325 545.052L1030.18 594.185L973.168 598.995L997.325 545.052Z" stroke="#181823" stroke-width="3"/>
<path d="M1333.04 461.27L1314.04 501.87L1288.55 466.761L1333.04 461.27Z" stroke="#181823" stroke-width="3"/>
<circle cx="574.5" cy="11.5" r="71.5" fill="#C0EEF2"/>
<path d="M506.647 376.654L464.808 466.092L408.65 388.749L506.647 376.654Z" stroke="#181823" stroke-width="3"/>
<path d="M1154.81 21.4586L1067.88 68.2865L1068.94 -27.2876L1154.81 21.4586Z" stroke="#181823" stroke-width="3"/>
<path d="M296.262 72.0568L209.925 15.5859L264.272 -26.0231L296.262 72.0568Z" stroke="black" stroke-width="3"/>
<circle cx="1236" cy="842" r="56" fill="#C0EEF2"/>
<circle cx="1170" cy="325" r="22" fill="#C0EEF2"/>
<circle cx="269" cy="997" r="60" fill="#C0EEF2"/>
<rect x="155.115" y="179" width="64" height="132" transform="rotate(33.1154 155.115 179)" stroke="#181823" stroke-width="3"/>
<rect x="274" y="962.449" width="64" height="36.5428" transform="rotate(-18.6337 274 962.449)" stroke="#181823" stroke-width="3"/>
<rect x="1345.47" y="84.7546" width="38" height="70.5048" transform="rotate(121.132 1345.47 84.7546)" stroke="#181823" stroke-width="3"/>
<rect x="1236" y="842" width="100" height="100" stroke="#181823" stroke-width="3"/>
<circle cx="116" cy="232" r="56" fill="#C0EEF2"/>
<circle cx="336" cy="661" r="45" stroke="#181823" stroke-width="3"/>
<circle cx="740" cy="912" r="20" stroke="#181823" stroke-width="3"/>
<circle cx="1189.15" cy="316.151" r="25" transform="rotate(-30 1189.15 316.151)" stroke="#181823" stroke-width="3"/>
<circle cx="1456.98" cy="660.976" r="46.8336" transform="rotate(-30 1456.98 660.976)" stroke="#181823" stroke-width="3"/>
<path d="M652.54 1025.99L704.494 1054.82L641.205 967.658L652.54 1025.99Z" stroke="#181823" stroke-width="3"/>
</g>
<defs>
<clipPath id="clip0_233_3">
<rect width="1440" height="1024" fill="white"/>
</clipPath>
</defs>
</svg>
